<svg width="40" height="40" viewBox="0 0 40 40" fill="none" xmlns="http://www.w3.org/2000/svg">
<path d="M17.6499 22.3499C18.3332 22.9999 18.3332 24.0665 17.6499 24.7165C16.9999 25.3665 15.9332 25.3665 15.2832 24.7165C12.0332 21.4665 12.0332 16.1832 15.2832 12.9332L21.1832 7.0332C24.4332 3.7832 29.7165 3.7832 32.9665 7.0332C36.2165 10.2832 36.2165 15.5665 32.9665 18.8165L30.4832 21.2999C30.4999 19.9332 30.2832 18.5665 29.8165 17.2665L30.5999 16.4665C32.5665 14.5165 32.5665 11.3499 30.5999 9.39987C28.6499 7.4332 25.4832 7.4332 23.5332 9.39987L17.6499 15.2832C15.6832 17.2332 15.6832 20.3999 17.6499 22.3499ZM22.3499 15.2832C22.9999 14.6332 24.0665 14.6332 24.7165 15.2832C27.9665 18.5332 27.9665 23.8165 24.7165 27.0665L18.8165 32.9665C15.5665 36.2165 10.2832 36.2165 7.0332 32.9665C3.7832 29.7165 3.7832 24.4332 7.0332 21.1832L9.51654 18.6999C9.49987 20.0665 9.71654 21.4332 10.1832 22.7499L9.39987 23.5332C7.4332 25.4832 7.4332 28.6499 9.39987 30.5999C11.3499 32.5665 14.5165 32.5665 16.4665 30.5999L22.3499 24.7165C24.3165 22.7665 24.3165 19.5999 22.3499 17.6499C21.6665 16.9999 21.6665 15.9332 22.3499 15.2832Z" fill="white"/>
</svg>
