<svg width="25" height="25" viewBox="0 0 25 25" fill="none" xmlns="http://www.w3.org/2000/svg">
<path d="M11.6426 19.3227L11.6412 19.3214C9.04651 16.9686 6.97349 15.0838 5.53745 13.3269C4.11239 11.5834 3.41943 10.0885 3.41943 8.53223C3.41943 5.9957 5.39053 4.03223 7.91943 4.03223C9.35713 4.03223 10.7536 4.70668 11.6606 5.76351L12.4194 6.64766L13.1783 5.76351C14.0853 4.70668 15.4817 4.03223 16.9194 4.03223C19.4483 4.03223 21.4194 5.9957 21.4194 8.53223C21.4194 10.0885 20.7265 11.5834 19.3014 13.3269C17.8654 15.0838 15.7924 16.9686 13.1977 19.3214L13.1963 19.3227L12.4194 20.0299L11.6426 19.3227Z" stroke="white" stroke-width="2"/>
</svg>
