<svg width="21" height="21" viewBox="0 0 21 21" fill="none" xmlns="http://www.w3.org/2000/svg">
<path d="M10.4194 9.69869C9.97739 9.69869 9.55346 9.5231 9.2409 9.21053C8.92834 8.89797 8.75275 8.47405 8.75275 8.03202C8.75275 7.59 8.92834 7.16607 9.2409 6.85351C9.55346 6.54095 9.97739 6.36536 10.4194 6.36536C10.8614 6.36536 11.2854 6.54095 11.5979 6.85351C11.9105 7.16607 12.0861 7.59 12.0861 8.03202C12.0861 8.25089 12.043 8.46762 11.9592 8.66983C11.8755 8.87204 11.7527 9.05577 11.5979 9.21053C11.4432 9.3653 11.2594 9.48806 11.0572 9.57182C10.855 9.65558 10.6383 9.69869 10.4194 9.69869ZM10.4194 3.36536C9.18174 3.36536 7.99475 3.85702 7.11958 4.73219C6.24441 5.60736 5.75275 6.79435 5.75275 8.03202C5.75275 11.532 10.4194 16.6987 10.4194 16.6987C10.4194 16.6987 15.0861 11.532 15.0861 8.03202C15.0861 6.79435 14.5944 5.60736 13.7192 4.73219C12.8441 3.85702 11.6571 3.36536 10.4194 3.36536Z" fill="white"/>
</svg>
