<svg width="32" height="32" viewBox="0 0 32 32" fill="none" xmlns="http://www.w3.org/2000/svg">
<path d="M15.1342 25.0123L15.1321 25.0104C11.8857 22.0666 9.30454 19.7192 7.5185 17.5341C5.74791 15.3679 4.90625 13.5336 4.90625 11.6396C4.90625 8.55547 7.29997 6.1709 10.375 6.1709C12.1249 6.1709 13.8277 6.99279 14.9329 8.28052L16 9.52385L17.0671 8.28052C18.1723 6.99279 19.8751 6.1709 21.625 6.1709C24.7 6.1709 27.0938 8.55547 27.0938 11.6396C27.0938 13.5336 26.2521 15.3679 24.4815 17.5341C22.6955 19.7192 20.1143 22.0666 16.8679 25.0104L16.8658 25.0123L16 25.8005L15.1342 25.0123Z" fill="#FF4438" stroke="#FF4438" stroke-width="2.8125"/>
</svg>
