<svg width="879" height="879" viewBox="0 0 879 879" fill="none" xmlns="http://www.w3.org/2000/svg">
<circle cx="439.5" cy="439.5" r="439.5" fill="#FFAF00"/>
<ellipse cx="185.054" cy="358.54" rx="57.8289" ry="57.8289" fill="#FFF8E4"/>
<ellipse cx="532.026" cy="358.54" rx="57.829" ry="57.8289" fill="#FFF8E4"/>
<path d="M624.553 474.197C624.553 507.612 617.971 540.699 605.184 571.57C592.397 602.441 573.655 630.491 550.027 654.119C526.399 677.746 498.349 696.489 467.478 709.276C436.607 722.063 403.52 728.645 370.106 728.645C336.691 728.645 303.604 722.063 272.733 709.276C241.862 696.489 213.812 677.746 190.184 654.119C166.556 630.491 147.814 602.441 135.027 571.57C122.24 540.699 115.658 507.612 115.658 474.197L370.106 474.197H624.553Z" fill="#FFF8E4"/>
</svg>
