<svg width="48" height="49" viewBox="0 0 48 49" fill="none" xmlns="http://www.w3.org/2000/svg">
<rect width="48" height="48" rx="24" transform="matrix(-1 0 0 1 48 0.5)" fill="black"/>
<path fill-rule="evenodd" clip-rule="evenodd" d="M25.9847 13.0671C25.9848 13.0661 25.985 13.0651 23.5 12.7912C21.015 12.5173 21.0152 12.5163 21.0153 12.5153L21.0155 12.5135L21.0158 12.5102L21.0164 12.5049L21.017 12.5L21.0155 12.5117C21.0131 12.5288 21.008 12.5642 20.9993 12.6161C20.9819 12.7201 20.9503 12.8892 20.898 13.1098C20.793 13.553 20.6077 14.1914 20.2941 14.9214C19.6653 16.3847 18.5516 18.1492 16.5892 19.5045L16.5858 19.5069C13.9807 21.3126 11.2055 22.2333 8.44701 22.2918L8.5 24.7912L8.44701 27.2907C11.2055 27.3492 13.9807 28.2698 16.5858 30.0755L16.5892 30.0779C18.5516 31.4332 19.6653 33.1978 20.2941 34.6611C20.6077 35.3911 20.793 36.0295 20.898 36.4727C20.9503 36.6932 20.9819 36.8623 20.9993 36.9664C21.008 37.0183 21.0131 37.0537 21.0155 37.0708L21.017 37.0824L21.0164 37.0775L21.0158 37.0723L21.0155 37.069L21.0153 37.0671C21.0152 37.0662 21.015 37.0652 23.5 36.7913C25.985 36.5174 25.9848 36.5164 25.9847 36.5153L25.9845 36.5131L25.9839 36.5083L25.9827 36.4972L25.9793 36.469C25.9766 36.4475 25.9732 36.4208 25.9688 36.3891C25.9601 36.3256 25.9476 36.2419 25.9305 36.1399C25.8964 35.936 25.8433 35.6576 25.7634 35.3202C25.604 34.6473 25.3348 33.7271 24.8879 32.6872C24.1808 31.0414 23.0094 29.0538 21.0933 27.2912H40V22.2912H21.0933C23.0094 20.5287 24.1808 18.5411 24.8879 16.8953C25.3348 15.8554 25.604 14.9352 25.7634 14.2623C25.8433 13.9248 25.8964 13.6465 25.9305 13.4426C25.9476 13.3405 25.9601 13.2568 25.9688 13.1934C25.9732 13.1616 25.9766 13.1349 25.9793 13.1135L25.9827 13.0852L25.9839 13.0741L25.9845 13.0693L25.9847 13.0671Z" fill="white"/>
</svg>
