<svg width="840" height="74" viewBox="0 0 840 74" fill="none" xmlns="http://www.w3.org/2000/svg">
<path d="M27.0518 0L21.0293 49.7982L3.35855 46.23L0 74L31.3465 73.9928L38.1298 17.9086H75.5917L71.7348 49.7982L54.064 46.23L50.7054 74L82.0519 73.9928L91 0.00723473L27.0518 0Z" fill="#FFF8E4"/>
<path d="M134.052 0L128.029 49.7982L110.359 46.23L107 74L138.347 73.9928L145.13 17.9086H182.592L178.735 49.7982L161.064 46.23L157.705 74L189.052 73.9928L198 0.00723473L134.052 0Z" fill="#FFF8E4"/>
<path d="M241.052 0L235.029 49.7982L217.359 46.23L214 74L245.347 73.9928L252.13 17.9086H289.592L285.735 49.7982L268.064 46.23L264.705 74L296.052 73.9928L305 0.00723473L241.052 0Z" fill="#FFF8E4"/>
<path d="M348.052 0L342.029 49.7982L324.359 46.23L321 74L352.347 73.9928L359.13 17.9086H396.592L392.735 49.7982L375.064 46.23L371.705 74L403.052 73.9928L412 0.00723473L348.052 0Z" fill="#FFF8E4"/>
<path d="M455.052 0L449.029 49.7982L431.359 46.23L428 74L459.347 73.9928L466.13 17.9086H503.592L499.735 49.7982L482.064 46.23L478.705 74L510.052 73.9928L519 0.00723473L455.052 0Z" fill="#FFF8E4"/>
<path d="M562.052 0L556.029 49.7982L538.359 46.23L535 74L566.347 73.9928L573.13 17.9086H610.592L606.735 49.7982L589.064 46.23L585.705 74L617.052 73.9928L626 0.00723473L562.052 0Z" fill="#FFF8E4"/>
<path d="M669.052 0L663.029 49.7982L645.359 46.23L642 74L673.347 73.9928L680.13 17.9086H717.592L713.735 49.7982L696.064 46.23L692.705 74L724.052 73.9928L733 0.00723473L669.052 0Z" fill="#FFF8E4"/>
<path d="M776.052 0L770.029 49.7982L752.359 46.23L749 74L780.347 73.9928L787.13 17.9086H824.592L820.735 49.7982L803.064 46.23L799.705 74L831.052 73.9928L840 0.00723473L776.052 0Z" fill="#FFF8E4"/>
</svg>
