<svg width="701" height="501" viewBox="0 0 701 501" fill="none" xmlns="http://www.w3.org/2000/svg">
<g clip-path="url(#clip0_2987_21886)">
<path d="M0.5 0.154297V500.154H700.5V0.154297H0.5ZM635.654 451.202L478.272 488.035L164.724 482.653L28.0282 454.235L17.482 237.999L40.6026 82.8643L190.684 34.3305L425.54 6.16348L633.22 40.8305L651.879 224.133L635.654 451.202Z" fill="#FF4438"/>
<rect width="747.826" height="43.1396" transform="matrix(0 1 -1 0 700.5 -103.532)" fill="black" fill-opacity="0.25"/>
<path d="M677.038 -84.2707C677.038 -79.5938 675.551 -77.2553 672.576 -77.2553C671.181 -77.2553 669.992 -77.5733 669.007 -78.2091C668.043 -78.845 667.284 -79.9835 666.73 -81.6245C666.197 -83.2656 665.93 -85.5425 665.93 -88.4553V-102.301C669.91 -102.137 673.633 -102.055 677.099 -102.055C680.566 -102.055 684.289 -102.137 688.269 -102.301V-95.0707H688.238V-88.5168C688.238 -85.9733 688.022 -83.9733 687.592 -82.5168C687.181 -81.0399 686.576 -80.004 685.776 -79.4091C684.976 -78.7938 683.961 -78.4861 682.73 -78.4861C681.479 -78.4861 680.361 -78.9271 679.376 -79.8091C678.412 -80.6707 677.633 -82.1579 677.038 -84.2707ZM682.638 -95.0707H679.776V-89.163C679.776 -87.8912 679.889 -87.0091 680.115 -86.5168C680.34 -86.004 680.751 -85.7476 681.346 -85.7476C681.817 -85.7476 682.146 -86.0143 682.33 -86.5476C682.535 -87.0604 682.638 -87.9322 682.638 -89.163V-95.0707ZM671.561 -89.163C671.561 -88.0963 671.602 -87.2861 671.684 -86.7322C671.787 -86.1579 671.951 -85.7476 672.176 -85.5015C672.422 -85.2553 672.751 -85.1322 673.161 -85.1322C673.694 -85.1322 674.074 -85.4297 674.299 -86.0245C674.546 -86.5989 674.669 -87.645 674.669 -89.163V-95.0707H671.561V-89.163ZM665.93 -55.6866C667.099 -56.0763 668.566 -56.5994 670.33 -57.2558V-67.0712L665.93 -68.6096V-76.3327L688.269 -67.7173V-56.3942L665.93 -47.7173V-55.6866ZM675.13 -59.0096C677.284 -59.7891 679.438 -60.5891 681.592 -61.4096L683.592 -62.1481C681.725 -62.866 678.905 -63.9224 675.13 -65.3173V-59.0096ZM688.238 -19.3226C684.771 -19.4662 681.058 -19.538 677.099 -19.538C673.12 -19.538 669.397 -19.4662 665.93 -19.3226V-30.338L682.73 -37.7841L665.93 -37.2303V-45.138C669.91 -44.9739 673.633 -44.8918 677.099 -44.8918C680.546 -44.8918 684.258 -44.9739 688.238 -45.138V-33.8149L670.976 -26.338L688.238 -26.8611V-19.3226ZM688.607 -5.47814C688.607 -1.62173 688.135 1.42443 687.192 3.66032C686.269 5.89622 684.976 7.4552 683.315 8.33725C681.674 9.23981 679.653 9.69109 677.253 9.69109C674.976 9.69109 672.987 9.17827 671.284 8.15263C669.581 7.12699 668.258 5.58853 667.315 3.53725C666.392 1.48597 665.93 -1.03711 665.93 -4.03198C665.93 -5.85762 665.93 -7.71403 665.93 -9.60121C665.93 -11.4884 665.94 -13.3961 665.961 -15.3243C670.002 -15.1602 673.766 -15.0781 677.253 -15.0781C680.781 -15.0781 684.464 -15.1602 688.299 -15.3243C688.505 -12.8833 688.607 -9.60121 688.607 -5.47814ZM672.053 -3.17044C672.053 -1.26275 672.515 0.00904187 673.438 0.64494C674.361 1.28084 675.633 1.59879 677.253 1.59879C678.812 1.59879 680.074 1.26032 681.038 0.583402C682.002 -0.0730084 682.484 -1.32429 682.484 -3.17044C682.484 -5.16019 682.422 -6.64737 682.299 -7.63198H672.053V-3.17044ZM688.607 31.2226C688.607 35.079 688.135 38.1251 687.192 40.361C686.269 42.5969 684.976 44.1559 683.315 45.038C681.674 45.9405 679.653 46.3918 677.253 46.3918C674.976 46.3918 672.987 45.879 671.284 44.8534C669.581 43.8277 668.258 42.2893 667.315 40.238C666.392 38.1867 665.93 35.6636 665.93 32.6687C665.93 30.8431 665.93 28.9867 665.93 27.0995C665.93 25.2123 665.94 23.3046 665.961 21.3764C670.002 21.5405 673.766 21.6226 677.253 21.6226C680.781 21.6226 684.464 21.5405 688.299 21.3764C688.505 23.8175 688.607 27.0995 688.607 31.2226ZM672.053 33.5303C672.053 35.438 672.515 36.7098 673.438 37.3457C674.361 37.9816 675.633 38.2995 677.253 38.2995C678.812 38.2995 680.074 37.961 681.038 37.2841C682.002 36.6277 682.484 35.3764 682.484 33.5303C682.484 31.5405 682.422 30.0534 682.299 29.0687H672.053V33.5303ZM682.146 68.2558C682.269 65.8147 682.34 64.0096 682.361 62.8404H671.838C671.858 64.0301 671.93 65.8353 672.053 68.2558H665.93V50.3788H672.053C671.93 52.7378 671.858 54.5327 671.838 55.7635H682.361C682.34 54.5327 682.269 52.7378 682.146 50.3788H688.269V68.2558H682.146ZM668.576 72.2599C669.622 72.9573 670.597 73.5316 671.499 73.9829C672.402 74.4547 673.448 74.906 674.638 75.3368C673.797 76.7932 673.14 78.4855 672.669 80.4137C672.197 82.3419 671.961 84.1368 671.961 85.7983C671.961 87.5009 672.105 88.7009 672.392 89.3983C672.699 90.0958 673.028 90.4445 673.376 90.4445C674.628 90.4445 675.253 88.5368 675.253 84.7214C675.253 80.5368 675.684 77.5009 676.546 75.6137C677.428 73.7265 678.843 72.7829 680.792 72.7829C683.561 72.7829 685.602 73.9316 686.915 76.2291C688.228 78.5265 688.884 81.5111 688.884 85.1829C688.884 87.3163 688.607 89.5009 688.053 91.7368C687.52 93.9932 686.781 96.024 685.838 97.8291C684.484 97.2342 682.833 96.6086 680.884 95.9522C680.474 95.8291 680.166 95.7265 679.961 95.6445C680.802 94.5983 681.499 93.0188 682.053 90.906C682.628 88.7932 682.915 86.9265 682.915 85.306C682.915 83.3573 682.781 82.0445 682.515 81.3675C682.269 80.6906 681.899 80.3522 681.407 80.3522C680.915 80.3522 680.515 80.8137 680.207 81.7368C679.92 82.6804 679.776 84.0342 679.776 85.7983C679.776 90.147 679.274 93.306 678.269 95.2752C677.284 97.2445 675.766 98.2291 673.715 98.2291C670.843 98.2291 668.771 97.1829 667.499 95.0906C666.248 92.9983 665.622 89.8291 665.622 85.5829C665.622 83.306 665.869 80.9881 666.361 78.6291C666.874 76.2701 667.612 74.147 668.576 72.2599ZM665.622 115.762C665.622 111.126 666.607 107.711 668.576 105.516C670.546 103.321 673.356 102.224 677.007 102.224C680.679 102.224 683.581 103.321 685.715 105.516C687.848 107.711 688.915 111.126 688.915 115.762C688.915 122.244 686.689 126.583 682.238 128.778C681.602 126.931 680.648 124.767 679.376 122.285C680.525 121.69 681.376 120.747 681.93 119.455C682.484 118.183 682.761 116.88 682.761 115.547C682.761 113.578 682.238 112.111 681.192 111.147C680.166 110.183 678.894 109.701 677.376 109.701C675.735 109.701 674.392 110.214 673.346 111.239C672.32 112.285 671.807 113.875 671.807 116.008C671.807 117.711 672.084 119.065 672.638 120.07C673.212 121.075 674.115 121.814 675.346 122.285C674.443 123.967 673.428 126.121 672.299 128.747C669.817 127.721 668.084 126.008 667.099 123.608C666.115 121.208 665.622 118.593 665.622 115.762ZM665.622 145.55C665.622 140.852 666.638 137.396 668.669 135.18C670.72 132.965 673.592 131.857 677.284 131.857C680.935 131.857 683.787 132.955 685.838 135.15C687.889 137.365 688.915 140.832 688.915 145.55C688.915 150.288 687.889 153.755 685.838 155.95C683.787 158.165 680.935 159.273 677.284 159.273C673.571 159.273 670.699 158.175 668.669 155.98C666.638 153.785 665.622 150.308 665.622 145.55ZM671.899 145.55C671.899 147.826 672.33 149.467 673.192 150.473C674.074 151.478 675.438 151.98 677.284 151.98C679.089 151.98 680.433 151.478 681.315 150.473C682.197 149.467 682.638 147.826 682.638 145.55C682.638 143.293 682.197 141.662 681.315 140.657C680.433 139.652 679.089 139.15 677.284 139.15C675.458 139.15 674.105 139.652 673.222 140.657C672.34 141.662 671.899 143.293 671.899 145.55ZM688.269 187.885L683.561 185.854C679.397 184.069 676.064 182.664 673.561 181.639C671.058 180.613 668.515 179.669 665.93 178.808V169.608C668.474 168.767 670.987 167.834 673.469 166.808C675.971 165.803 679.171 164.449 683.069 162.746C683.725 162.459 685.458 161.711 688.269 160.5V169.054C686.279 169.669 683.725 170.582 680.607 171.793C677.858 172.859 675.479 173.721 673.469 174.377C674.884 174.808 676.392 175.321 677.992 175.916C679.612 176.531 680.597 176.9 680.946 177.023C684.084 178.213 686.525 179.085 688.269 179.639V187.885ZM671.561 198.325C671.602 206.12 671.715 211.772 671.899 215.279C671.058 215.136 670.187 215.043 669.284 215.002C668.402 214.982 667.284 214.972 665.93 214.972V191.064C669.91 191.228 673.633 191.31 677.099 191.31C680.566 191.31 684.289 191.228 688.269 191.064V214.972H682.699V198.325H679.746C679.725 199.31 679.715 200.766 679.715 202.695C679.715 205.956 679.776 209.331 679.899 212.818H674.607C674.73 209.331 674.792 205.956 674.792 202.695C674.792 200.766 674.781 199.31 674.761 198.325H671.561ZM680.822 243.993C679.038 243.993 677.53 243.552 676.299 242.67C675.069 241.808 674.176 240.321 673.622 238.208C673.294 238.454 673.038 238.629 672.853 238.731L665.93 243.716V235.347C667.612 234.444 669.992 233.018 673.069 231.07V226.547H665.93V219.285C669.91 219.449 673.633 219.531 677.099 219.531C680.566 219.531 684.289 219.449 688.269 219.285V226.547H688.238V232.854C688.238 236.998 687.571 239.89 686.238 241.531C684.905 243.172 683.099 243.993 680.822 243.993ZM682.33 226.547H678.822V230.7C678.822 232.444 678.874 233.757 678.976 234.639C679.099 235.542 679.284 236.167 679.53 236.516C679.776 236.865 680.135 237.039 680.607 237.039C681.058 237.039 681.407 236.875 681.653 236.547C681.899 236.218 682.074 235.603 682.176 234.7C682.279 233.798 682.33 232.465 682.33 230.7V226.547Z" fill="white"/>
<path d="M677.038 301.775C677.038 306.452 675.551 308.791 672.576 308.791C671.181 308.791 669.992 308.473 669.007 307.837C668.043 307.201 667.284 306.062 666.73 304.421C666.197 302.78 665.93 300.503 665.93 297.591V283.744C669.91 283.909 673.633 283.991 677.099 283.991C680.566 283.991 684.289 283.909 688.269 283.744V290.975H688.238V297.529C688.238 300.073 688.022 302.073 687.592 303.529C687.181 305.006 686.576 306.042 685.776 306.637C684.976 307.252 683.961 307.56 682.73 307.56C681.479 307.56 680.361 307.119 679.376 306.237C678.412 305.375 677.633 303.888 677.038 301.775ZM682.638 290.975H679.776V296.883C679.776 298.155 679.889 299.037 680.115 299.529C680.34 300.042 680.751 300.298 681.346 300.298C681.817 300.298 682.146 300.032 682.33 299.498C682.535 298.985 682.638 298.114 682.638 296.883V290.975ZM671.561 296.883C671.561 297.95 671.602 298.76 671.684 299.314C671.787 299.888 671.951 300.298 672.176 300.544C672.422 300.791 672.751 300.914 673.161 300.914C673.694 300.914 674.074 300.616 674.299 300.021C674.546 299.447 674.669 298.401 674.669 296.883V290.975H671.561V296.883ZM665.93 331.898C667.099 331.508 668.566 330.985 670.33 330.329V320.513L665.93 318.975V311.252L688.269 319.867V331.19L665.93 339.867V331.898ZM675.13 328.575C677.284 327.795 679.438 326.995 681.592 326.175L683.592 325.436C681.725 324.718 678.905 323.662 675.13 322.267V328.575ZM688.238 369.8C684.771 369.657 681.058 369.585 677.099 369.585C673.12 369.585 669.397 369.657 665.93 369.8V358.785L682.73 351.339L665.93 351.893V343.985C669.91 344.149 673.633 344.231 677.099 344.231C680.546 344.231 684.258 344.149 688.238 343.985V355.308L670.976 362.785L688.238 362.262V369.8ZM688.607 385.183C688.607 389.04 688.135 392.086 687.192 394.322C686.269 396.558 684.976 398.116 683.315 398.999C681.674 399.901 679.653 400.352 677.253 400.352C674.976 400.352 672.987 399.84 671.284 398.814C669.581 397.788 668.258 396.25 667.315 394.199C666.392 392.147 665.93 389.624 665.93 386.629C665.93 384.804 665.93 382.947 665.93 381.06C665.93 379.173 665.94 377.265 665.961 375.337C670.002 375.501 673.766 375.583 677.253 375.583C680.781 375.583 684.464 375.501 688.299 375.337C688.505 377.778 688.607 381.06 688.607 385.183ZM672.053 387.491C672.053 389.399 672.515 390.67 673.438 391.306C674.361 391.942 675.633 392.26 677.253 392.26C678.812 392.26 680.074 391.922 681.038 391.245C682.002 390.588 682.484 389.337 682.484 387.491C682.484 385.501 682.422 384.014 682.299 383.029H672.053V387.491ZM688.607 424.961C688.607 428.817 688.135 431.863 687.192 434.099C686.269 436.335 684.976 437.894 683.315 438.776C681.674 439.679 679.653 440.13 677.253 440.13C674.976 440.13 672.987 439.617 671.284 438.592C669.581 437.566 668.258 436.027 667.315 433.976C666.392 431.925 665.93 429.402 665.93 426.407C665.93 424.581 665.93 422.725 665.93 420.838C665.93 418.951 665.94 417.043 665.961 415.115C670.002 415.279 673.766 415.361 677.253 415.361C680.781 415.361 684.464 415.279 688.299 415.115C688.505 417.556 688.607 420.838 688.607 424.961ZM672.053 427.268C672.053 429.176 672.515 430.448 673.438 431.084C674.361 431.72 675.633 432.038 677.253 432.038C678.812 432.038 680.074 431.699 681.038 431.022C682.002 430.366 682.484 429.115 682.484 427.268C682.484 425.279 682.422 423.792 682.299 422.807H672.053V427.268ZM682.146 463.532C682.269 461.091 682.34 459.286 682.361 458.117H671.838C671.858 459.307 671.93 461.112 672.053 463.532H665.93V445.655H672.053C671.93 448.014 671.858 449.809 671.838 451.04H682.361C682.34 449.809 682.269 448.014 682.146 445.655H688.269V463.532H682.146ZM668.576 469.075C669.622 469.772 670.597 470.347 671.499 470.798C672.402 471.27 673.448 471.721 674.638 472.152C673.797 473.608 673.14 475.301 672.669 477.229C672.197 479.157 671.961 480.952 671.961 482.613C671.961 484.316 672.105 485.516 672.392 486.213C672.699 486.911 673.028 487.26 673.376 487.26C674.628 487.26 675.253 485.352 675.253 481.537C675.253 477.352 675.684 474.316 676.546 472.429C677.428 470.542 678.843 469.598 680.792 469.598C683.561 469.598 685.602 470.747 686.915 473.044C688.228 475.342 688.884 478.326 688.884 481.998C688.884 484.131 688.607 486.316 688.053 488.552C687.52 490.808 686.781 492.839 685.838 494.644C684.484 494.049 682.833 493.424 680.884 492.767C680.474 492.644 680.166 492.542 679.961 492.46C680.802 491.413 681.499 489.834 682.053 487.721C682.628 485.608 682.915 483.742 682.915 482.121C682.915 480.172 682.781 478.86 682.515 478.183C682.269 477.506 681.899 477.167 681.407 477.167C680.915 477.167 680.515 477.629 680.207 478.552C679.92 479.495 679.776 480.849 679.776 482.613C679.776 486.962 679.274 490.121 678.269 492.09C677.284 494.06 675.766 495.044 673.715 495.044C670.843 495.044 668.771 493.998 667.499 491.906C666.248 489.813 665.622 486.644 665.622 482.398C665.622 480.121 665.869 477.803 666.361 475.444C666.874 473.085 667.612 470.962 668.576 469.075ZM665.622 514.116C665.622 509.48 666.607 506.065 668.576 503.87C670.546 501.675 673.356 500.577 677.007 500.577C680.679 500.577 683.581 501.675 685.715 503.87C687.848 506.065 688.915 509.48 688.915 514.116C688.915 520.598 686.689 524.936 682.238 527.131C681.602 525.285 680.648 523.121 679.376 520.639C680.525 520.044 681.376 519.1 681.93 517.808C682.484 516.536 682.761 515.234 682.761 513.9C682.761 511.931 682.238 510.465 681.192 509.5C680.166 508.536 678.894 508.054 677.376 508.054C675.735 508.054 674.392 508.567 673.346 509.593C672.32 510.639 671.807 512.229 671.807 514.362C671.807 516.065 672.084 517.418 672.638 518.424C673.212 519.429 674.115 520.167 675.346 520.639C674.443 522.321 673.428 524.475 672.299 527.1C669.817 526.075 668.084 524.362 667.099 521.962C666.115 519.562 665.622 516.947 665.622 514.116ZM665.622 545.442C665.622 540.744 666.638 537.288 668.669 535.072C670.72 532.857 673.592 531.749 677.284 531.749C680.935 531.749 683.787 532.847 685.838 535.042C687.889 537.257 688.915 540.724 688.915 545.442C688.915 550.18 687.889 553.647 685.838 555.842C683.787 558.057 680.935 559.165 677.284 559.165C673.571 559.165 670.699 558.067 668.669 555.872C666.638 553.677 665.622 550.201 665.622 545.442ZM671.899 545.442C671.899 547.718 672.33 549.36 673.192 550.365C674.074 551.37 675.438 551.872 677.284 551.872C679.089 551.872 680.433 551.37 681.315 550.365C682.197 549.36 682.638 547.718 682.638 545.442C682.638 543.185 682.197 541.554 681.315 540.549C680.433 539.544 679.089 539.042 677.284 539.042C675.458 539.042 674.105 539.544 673.222 540.549C672.34 541.554 671.899 543.185 671.899 545.442ZM688.269 589.315L683.561 587.285C679.397 585.5 676.064 584.095 673.561 583.069C671.058 582.044 668.515 581.1 665.93 580.238V571.038C668.474 570.197 670.987 569.264 673.469 568.238C675.971 567.233 679.171 565.879 683.069 564.177C683.725 563.89 685.458 563.141 688.269 561.931V570.485C686.279 571.1 683.725 572.013 680.607 573.223C677.858 574.29 675.479 575.151 673.469 575.808C674.884 576.238 676.392 576.751 677.992 577.346C679.612 577.962 680.597 578.331 680.946 578.454C684.084 579.644 686.525 580.515 688.269 581.069V589.315ZM671.561 601.294C671.602 609.089 671.715 614.741 671.899 618.248C671.058 618.105 670.187 618.012 669.284 617.971C668.402 617.951 667.284 617.941 665.93 617.941V594.033C669.91 594.197 673.633 594.279 677.099 594.279C680.566 594.279 684.289 594.197 688.269 594.033V617.941H682.699V601.294H679.746C679.725 602.279 679.715 603.735 679.715 605.664C679.715 608.925 679.776 612.3 679.899 615.787H674.607C674.73 612.3 674.792 608.925 674.792 605.664C674.792 603.735 674.781 602.279 674.761 601.294H671.561ZM680.822 648.5C679.038 648.5 677.53 648.059 676.299 647.177C675.069 646.316 674.176 644.828 673.622 642.716C673.294 642.962 673.038 643.136 672.853 643.239L665.93 648.223V639.854C667.612 638.952 669.992 637.526 673.069 635.577V631.054H665.93V623.793C669.91 623.957 673.633 624.039 677.099 624.039C680.566 624.039 684.289 623.957 688.269 623.793V631.054H688.238V637.362C688.238 641.505 687.571 644.398 686.238 646.039C684.905 647.68 683.099 648.5 680.822 648.5ZM682.33 631.054H678.822V635.208C678.822 636.952 678.874 638.264 678.976 639.146C679.099 640.049 679.284 640.675 679.53 641.023C679.776 641.372 680.135 641.546 680.607 641.546C681.058 641.546 681.407 641.382 681.653 641.054C681.899 640.726 682.074 640.11 682.176 639.208C682.279 638.305 682.33 636.972 682.33 635.208V631.054Z" fill="white"/>
</g>
<defs>
<clipPath id="clip0_2987_21886">
<rect width="700" height="500" fill="white" transform="translate(0.5 0.154297)"/>
</clipPath>
</defs>
</svg>
