<svg width="60" height="60" viewBox="0 0 60 60" fill="none" xmlns="http://www.w3.org/2000/svg">
<rect x="60" width="60" height="60" rx="30" transform="rotate(90 60 0)" fill="#FE8DBA"/>
<path fill-rule="evenodd" clip-rule="evenodd" d="M44.2909 27.5191C44.2922 27.519 44.2935 27.5188 44.6359 30.625C44.9783 33.7312 44.9795 33.7311 44.9807 33.7309L44.983 33.7307L44.9872 33.7302L44.9937 33.7294L44.9999 33.7287L45 33.7287C45 33.7287 44.995 33.7293 44.9853 33.7306C44.9639 33.7336 44.9197 33.74 44.8548 33.7509C44.7247 33.7727 44.5134 33.8122 44.2376 33.8775C43.6837 34.0087 42.8857 34.2403 41.9732 34.6324C40.144 35.4184 37.9384 36.8105 36.2442 39.2635L36.2412 39.2678C33.9841 42.5241 32.8333 45.9931 32.7602 49.4412L29.6358 49.375L26.5116 49.4412C26.4385 45.9931 25.2877 42.5241 23.0306 39.2678L23.0276 39.2635C21.3334 36.8105 19.1278 35.4184 17.2986 34.6324C16.3861 34.2403 15.5881 34.0087 15.0342 33.8775C14.7584 33.8122 14.5471 33.7727 14.417 33.7509C14.3521 33.74 14.3079 33.7336 14.2865 33.7307L14.2719 33.7287L14.2781 33.7294L14.2846 33.7302L14.2888 33.7307L14.2911 33.7309C14.2923 33.7311 14.2935 33.7312 14.6359 30.625C14.9783 27.5188 14.9796 27.519 14.9809 27.5191L14.9836 27.5194L14.9896 27.5201L15.0035 27.5217L15.0388 27.5259C15.0656 27.5292 15.099 27.5336 15.1387 27.539C15.218 27.5499 15.3226 27.5655 15.4502 27.5868C15.705 27.6296 16.0529 27.6959 16.4748 27.7958C17.3159 27.995 18.4661 28.3315 19.766 28.8901C21.8232 29.774 24.3078 31.2383 26.5109 33.6334L26.5109 10L32.7609 10L32.7609 33.6334C34.964 31.2383 37.4486 29.774 39.5058 28.8901C40.8057 28.3315 41.9559 27.995 42.797 27.7958C43.2189 27.6959 43.5668 27.6296 43.8216 27.5868C43.9492 27.5655 44.0538 27.5499 44.1331 27.539C44.1728 27.5336 44.2062 27.5292 44.233 27.5259L44.2683 27.5217L44.2822 27.5201L44.2882 27.5194L44.2909 27.5191Z" fill="white"/>
</svg>
