<svg width="48" height="48" viewBox="0 0 48 48" fill="none" xmlns="http://www.w3.org/2000/svg">
<rect width="48" height="48" rx="24" fill="white"/>
<path fill-rule="evenodd" clip-rule="evenodd" d="M22.0153 12.5671C22.0152 12.5661 22.015 12.5651 24.5 12.2912C26.985 12.0173 26.9848 12.0163 26.9847 12.0153L26.9845 12.0135L26.9842 12.0102L26.9836 12.0049L26.983 12L26.9845 12.0117C26.9869 12.0288 26.992 12.0642 27.0007 12.1161C27.0181 12.2201 27.0497 12.3892 27.102 12.6098C27.207 13.053 27.3923 13.6914 27.7059 14.4214C28.3347 15.8847 29.4484 17.6492 31.4108 19.0045L31.4142 19.0069C34.0193 20.8126 36.7945 21.7332 39.553 21.7917L39.5 24.2912L39.553 26.7906C36.7945 26.8491 34.0193 27.7698 31.4142 29.5754L31.4108 29.5778C29.4484 30.9332 28.3347 32.6977 27.7059 34.161C27.3923 34.891 27.207 35.5294 27.102 35.9725C27.0497 36.1931 27.0181 36.3622 27.0007 36.4663C26.992 36.5182 26.9869 36.5536 26.9845 36.5707L26.983 36.5823L26.9836 36.5774L26.9842 36.5722L26.9845 36.5689L26.9847 36.567C26.9848 36.5661 26.985 36.5651 24.5 36.2912C22.015 36.0173 22.0152 36.0162 22.0153 36.0152L22.0155 36.013L22.0161 36.0082L22.0173 35.9971L22.0207 35.9689C22.0234 35.9474 22.0268 35.9207 22.0312 35.889C22.0399 35.8255 22.0524 35.7418 22.0695 35.6398C22.1036 35.4359 22.1567 35.1575 22.2366 34.8201C22.396 34.1472 22.6652 33.227 23.1121 32.1871C23.8192 30.5413 24.9906 28.5537 26.9067 26.7912H8V21.7912H26.9067C24.9906 20.0287 23.8192 18.041 23.1121 16.3953C22.6652 15.3553 22.396 14.4352 22.2366 13.7623C22.1567 13.4248 22.1036 13.1465 22.0695 12.9426C22.0524 12.8405 22.0399 12.7568 22.0312 12.6934C22.0268 12.6616 22.0234 12.6349 22.0207 12.6135L22.0173 12.5852L22.0161 12.5741L22.0155 12.5693L22.0153 12.5671Z" fill="#0099FF"/>
</svg>
