<svg width="685" height="383" viewBox="0 0 685 383" fill="none" xmlns="http://www.w3.org/2000/svg">
<path d="M590 64V379" stroke="white" stroke-width="5"/>
<path d="M490 64V379" stroke="white" stroke-width="5"/>
<path d="M390 64V379" stroke="white" stroke-width="5"/>
<path d="M290 64V379" stroke="white" stroke-width="5"/>
<path d="M190 64V379" stroke="white" stroke-width="5"/>
<path d="M90 64V379" stroke="white" stroke-width="5"/>
<path d="M-1 95H700" stroke="white" stroke-width="5"/>
<path d="M-1 64H700" stroke="white" stroke-width="5"/>
<path d="M-1 165H700" stroke="white" stroke-width="5"/>
<path d="M-1 235H700" stroke="white" stroke-width="5"/>
<path d="M-1 305H700" stroke="white" stroke-width="5"/>
<path d="M-19 5H706" stroke="white" stroke-width="10"/>
<path d="M-12 378H713" stroke="white" stroke-width="10"/>
<path d="M317.982 185.747L318.715 204.709L311.982 204.411L312.391 214.985L323.957 213.146L323.133 191.79L336.956 189.595L337.425 201.738L330.693 201.44L331.101 212.014L342.668 210.175L341.58 182.003L317.982 185.747Z" fill="white"/>
<path d="M629.427 319.612L623.532 343.452L615.268 340.665L611.981 353.959L627.023 355.823L633.662 328.974L651.637 331.206L647.862 346.473L639.599 343.686L636.311 356.98L651.353 358.844L660.111 323.425L629.427 319.612Z" fill="white"/>
<path d="M133.119 114.872L127.417 132.972L121.18 130.422L118 140.515L129.51 142.682L135.931 122.298L149.686 124.891L146.034 136.482L139.797 133.932L136.617 144.025L148.127 146.192L156.598 119.301L133.119 114.872Z" fill="#FFAF00"/>
<path d="M419.907 262.942L414.1 281.008L407.877 278.422L404.639 288.497L416.136 290.73L422.676 270.384L436.415 273.056L432.697 284.625L426.474 282.039L423.236 292.114L434.733 294.348L443.36 267.507L419.907 262.942Z" fill="white"/>
<path d="M218.647 324.537L213.024 347.294L205.136 344.635L202 357.325L216.358 359.103L222.691 333.473L239.85 335.601L236.249 350.174L228.36 347.515L225.224 360.206L239.583 361.983L247.937 328.173L218.647 324.537Z" fill="#FFAF00"/>
<path d="M259.009 322.451L258.593 335.655L253.933 335.119L253.701 342.482L261.822 341.769L262.291 326.899L271.998 326.049L271.731 334.504L267.071 333.969L266.838 341.332L274.96 340.619L275.579 321.002L259.009 322.451Z" fill="white"/>
<path d="M452.878 256.055L454.666 274.947L447.927 275.024L448.924 285.56L460.37 283.079L458.357 261.802L472.037 258.841L473.182 270.939L466.443 271.016L467.44 281.551L478.886 279.071L476.231 251.003L452.878 256.055Z" fill="#FFAF00"/>
<path d="M28.9038 82.968C29.1758 82.56 29.3998 82.18 29.5758 81.828C29.7598 81.476 29.9358 81.068 30.1038 80.604C30.6718 80.932 31.3318 81.188 32.0838 81.372C32.8358 81.556 33.5358 81.648 34.1838 81.648C34.8478 81.648 35.3158 81.592 35.5878 81.48C35.8598 81.36 35.9958 81.232 35.9958 81.096C35.9958 80.608 35.2518 80.364 33.7638 80.364C32.1318 80.364 30.9478 80.196 30.2118 79.86C29.4758 79.516 29.1078 78.964 29.1078 78.204C29.1078 77.124 29.5558 76.328 30.4518 75.816C31.3478 75.304 32.5118 75.048 33.9438 75.048C34.7758 75.048 35.6278 75.156 36.4998 75.372C37.3798 75.58 38.1718 75.868 38.8758 76.236C38.6438 76.764 38.3998 77.408 38.1438 78.168C38.0958 78.328 38.0558 78.448 38.0238 78.528C37.6158 78.2 36.9998 77.928 36.1758 77.712C35.3518 77.488 34.6238 77.376 33.9918 77.376C33.2318 77.376 32.7198 77.428 32.4558 77.532C32.1918 77.628 32.0598 77.772 32.0598 77.964C32.0598 78.156 32.2398 78.312 32.5998 78.432C32.9678 78.544 33.4958 78.6 34.1838 78.6C35.8798 78.6 37.1118 78.796 37.8798 79.188C38.6478 79.572 39.0318 80.164 39.0318 80.964C39.0318 82.084 38.6238 82.892 37.8078 83.388C36.9918 83.876 35.7558 84.12 34.0998 84.12C33.2118 84.12 32.3078 84.024 31.3878 83.832C30.4678 83.632 29.6398 83.344 28.9038 82.968ZM47.0938 75.276H50.0698V80.052C50.0538 81.228 49.6498 82.2 48.8578 82.968C48.0738 83.736 46.7498 84.12 44.8858 84.12C42.9978 84.12 41.7058 83.756 41.0098 83.028C40.3138 82.292 39.9738 81.328 39.9898 80.136V75.276H42.9658V79.944C42.9658 80.296 42.9898 80.584 43.0378 80.808C43.0938 81.024 43.2618 81.228 43.5418 81.42C43.8298 81.612 44.2898 81.708 44.9218 81.708C45.6098 81.708 46.1138 81.612 46.4338 81.42C46.7538 81.22 46.9418 81 46.9978 80.76C47.0618 80.52 47.0938 80.212 47.0938 79.836V75.276ZM61.0968 75.3C61.0408 76.652 61.0128 78.1 61.0128 79.644C61.0128 81.196 61.0408 82.648 61.0968 84H56.8008L53.8968 77.448L54.1128 84H51.0288C51.0928 82.448 51.1248 80.996 51.1248 79.644C51.1248 78.3 51.0928 76.852 51.0288 75.3H55.4448L58.3608 82.032L58.1568 75.3H61.0968Z" fill="white"/>
<path d="M132.923 75.288L133.859 84H130.751L130.559 77.784L129.359 84H126.215L124.991 77.832L124.811 84H121.703L122.639 75.288H126.719L127.763 80.964L128.675 75.288H132.923ZM139.922 84.12C138.09 84.12 136.742 83.724 135.878 82.932C135.014 82.132 134.582 81.012 134.582 79.572C134.582 78.148 135.01 77.036 135.866 76.236C136.73 75.436 138.082 75.036 139.922 75.036C141.77 75.036 143.122 75.436 143.978 76.236C144.842 77.036 145.274 78.148 145.274 79.572C145.274 81.02 144.846 82.14 143.99 82.932C143.134 83.724 141.778 84.12 139.922 84.12ZM139.922 81.672C140.81 81.672 141.45 81.504 141.842 81.168C142.234 80.824 142.43 80.292 142.43 79.572C142.43 78.868 142.234 78.344 141.842 78C141.45 77.656 140.81 77.484 139.922 77.484C139.042 77.484 138.406 77.656 138.014 78C137.622 78.344 137.426 78.868 137.426 79.572C137.426 80.284 137.622 80.812 138.014 81.156C138.406 81.5 139.042 81.672 139.922 81.672ZM156.298 75.3C156.242 76.652 156.214 78.1 156.214 79.644C156.214 81.196 156.242 82.648 156.298 84H152.002L149.098 77.448L149.314 84H146.23C146.294 82.448 146.326 80.996 146.326 79.644C146.326 78.3 146.294 76.852 146.23 75.3H150.646L153.562 82.032L153.358 75.3H156.298Z" fill="white"/>
<path d="M231.929 77.808C230.673 77.768 229.453 77.744 228.269 77.736V84H225.269V77.736C224.077 77.744 222.861 77.768 221.621 77.808V75.288H231.929V77.808ZM239.998 75.276H242.974V80.052C242.958 81.228 242.554 82.2 241.762 82.968C240.978 83.736 239.654 84.12 237.79 84.12C235.902 84.12 234.61 83.756 233.914 83.028C233.218 82.292 232.878 81.328 232.894 80.136V75.276H235.87V79.944C235.87 80.296 235.894 80.584 235.942 80.808C235.998 81.024 236.166 81.228 236.446 81.42C236.734 81.612 237.194 81.708 237.826 81.708C238.514 81.708 239.018 81.612 239.338 81.42C239.658 81.22 239.846 81 239.902 80.76C239.966 80.52 239.998 80.212 239.998 79.836V75.276ZM246.765 81.804C249.805 81.788 252.009 81.744 253.377 81.672C253.321 82 253.285 82.34 253.269 82.692C253.261 83.036 253.257 83.472 253.257 84H243.933C243.997 82.448 244.029 80.996 244.029 79.644C244.029 78.292 243.997 76.84 243.933 75.288H253.257V77.46H246.765V78.612C247.149 78.62 247.717 78.624 248.469 78.624C249.741 78.624 251.057 78.6 252.417 78.552V80.616C251.057 80.568 249.741 80.544 248.469 80.544C247.717 80.544 247.149 80.548 246.765 80.556V81.804Z" fill="white"/>
<path d="M329.487 80.724L330.111 75.288H333.039L331.431 84H327.747L326.931 79.14L325.983 84H322.455L320.847 75.288H323.775L324.387 80.652L325.347 75.288H328.551L329.487 80.724ZM336.828 81.804C339.868 81.788 342.072 81.744 343.44 81.672C343.384 82 343.348 82.34 343.332 82.692C343.324 83.036 343.32 83.472 343.32 84H333.996C334.06 82.448 334.092 80.996 334.092 79.644C334.092 78.292 334.06 76.84 333.996 75.288H343.32V77.46H336.828V78.612C337.212 78.62 337.78 78.624 338.532 78.624C339.804 78.624 341.12 78.6 342.48 78.552V80.616C341.12 80.568 339.804 80.544 338.532 80.544C337.78 80.544 337.212 80.548 336.828 80.556V81.804ZM348.242 75.156C349.746 75.156 350.934 75.34 351.806 75.708C352.678 76.068 353.286 76.572 353.63 77.22C353.982 77.86 354.158 78.648 354.158 79.584C354.158 80.472 353.958 81.248 353.558 81.912C353.158 82.576 352.558 83.092 351.758 83.46C350.958 83.82 349.974 84 348.806 84C348.094 84 347.37 84 346.634 84C345.898 84 345.154 83.996 344.402 83.988C344.466 82.412 344.498 80.944 344.498 79.584C344.498 78.208 344.466 76.772 344.402 75.276C345.354 75.196 346.634 75.156 348.242 75.156ZM349.142 81.612C349.886 81.612 350.382 81.432 350.63 81.072C350.878 80.712 351.002 80.216 351.002 79.584C351.002 78.976 350.87 78.484 350.606 78.108C350.35 77.732 349.862 77.544 349.142 77.544C348.366 77.544 347.786 77.568 347.402 77.616V81.612H349.142Z" fill="white"/>
<path d="M431.124 77.808C429.868 77.768 428.648 77.744 427.464 77.736V84H424.464V77.736C423.272 77.744 422.056 77.768 420.816 77.808V75.288H431.124V77.808ZM442.145 75.288C442.089 76.64 442.061 78.092 442.061 79.644C442.061 81.196 442.089 82.648 442.145 84H439.325V80.736H434.909V84H432.089C432.153 82.448 432.185 80.996 432.185 79.644C432.185 78.292 432.153 76.84 432.089 75.288H434.909V78.552H439.325V75.288H442.145ZM450.209 75.276H453.185V80.052C453.169 81.228 452.765 82.2 451.973 82.968C451.189 83.736 449.865 84.12 448.001 84.12C446.113 84.12 444.821 83.756 444.125 83.028C443.429 82.292 443.089 81.328 443.105 80.136V75.276H446.081V79.944C446.081 80.296 446.105 80.584 446.153 80.808C446.209 81.024 446.377 81.228 446.657 81.42C446.945 81.612 447.405 81.708 448.037 81.708C448.725 81.708 449.229 81.612 449.549 81.42C449.869 81.22 450.057 81 450.113 80.76C450.177 80.52 450.209 80.212 450.209 79.836V75.276Z" fill="white"/>
<path d="M532.914 77.532H526.386V78.792C526.794 78.8 527.406 78.804 528.222 78.804C529.63 78.804 531.062 78.78 532.518 78.732V81.084C531.062 81.028 529.526 81 527.91 81C527.238 81 526.73 81.004 526.386 81.012V84H523.554C523.618 82.448 523.65 80.996 523.65 79.644C523.65 78.292 523.618 76.84 523.554 75.288H532.914V77.532ZM543.514 78.192C543.514 78.888 543.342 79.476 542.998 79.956C542.662 80.436 542.082 80.784 541.258 81C541.354 81.128 541.422 81.228 541.462 81.3L543.406 84H540.142C539.79 83.344 539.234 82.416 538.474 81.216H536.71V84H533.878C533.942 82.448 533.974 80.996 533.974 79.644C533.974 78.292 533.942 76.84 533.878 75.288H536.71V75.3H539.17C540.786 75.3 541.914 75.56 542.554 76.08C543.194 76.6 543.514 77.304 543.514 78.192ZM536.71 77.604V78.972H538.33C539.01 78.972 539.522 78.952 539.866 78.912C540.218 78.864 540.462 78.792 540.598 78.696C540.734 78.6 540.802 78.46 540.802 78.276C540.802 78.1 540.738 77.964 540.61 77.868C540.482 77.772 540.242 77.704 539.89 77.664C539.538 77.624 539.018 77.604 538.33 77.604H536.71ZM551.444 77.676C550.492 77.628 549.788 77.6 549.332 77.592V81.696C549.796 81.688 550.5 81.66 551.444 81.612V84H544.472V81.612C545.392 81.66 546.092 81.688 546.572 81.696V77.592C546.092 77.6 545.392 77.628 544.472 77.676V75.288H551.444V77.676Z" fill="white"/>
<path d="M621.498 82.968C621.77 82.56 621.994 82.18 622.17 81.828C622.354 81.476 622.53 81.068 622.698 80.604C623.266 80.932 623.926 81.188 624.678 81.372C625.43 81.556 626.13 81.648 626.778 81.648C627.442 81.648 627.91 81.592 628.182 81.48C628.454 81.36 628.59 81.232 628.59 81.096C628.59 80.608 627.846 80.364 626.358 80.364C624.726 80.364 623.542 80.196 622.806 79.86C622.07 79.516 621.702 78.964 621.702 78.204C621.702 77.124 622.15 76.328 623.046 75.816C623.942 75.304 625.106 75.048 626.538 75.048C627.37 75.048 628.222 75.156 629.094 75.372C629.974 75.58 630.766 75.868 631.47 76.236C631.238 76.764 630.994 77.408 630.738 78.168C630.69 78.328 630.65 78.448 630.618 78.528C630.21 78.2 629.594 77.928 628.77 77.712C627.946 77.488 627.218 77.376 626.586 77.376C625.826 77.376 625.314 77.428 625.05 77.532C624.786 77.628 624.654 77.772 624.654 77.964C624.654 78.156 624.834 78.312 625.194 78.432C625.562 78.544 626.09 78.6 626.778 78.6C628.474 78.6 629.706 78.796 630.474 79.188C631.242 79.572 631.626 80.164 631.626 80.964C631.626 82.084 631.218 82.892 630.402 83.388C629.586 83.876 628.35 84.12 626.694 84.12C625.806 84.12 624.902 84.024 623.982 83.832C623.062 83.632 622.234 83.344 621.498 82.968ZM640.156 84C640.004 83.544 639.8 82.972 639.544 82.284H635.716L635.116 84H632.104L635.464 75.288H639.88L643.264 84H640.156ZM638.86 80.412C638.556 79.572 638.244 78.732 637.924 77.892L637.636 77.112C637.356 77.84 636.944 78.94 636.4 80.412H638.86ZM653.497 77.808C652.241 77.768 651.021 77.744 649.837 77.736V84H646.837V77.736C645.645 77.744 644.429 77.768 643.189 77.808V75.288H653.497V77.808Z" fill="white"/>
</svg>
