<svg width="1720" height="38" viewBox="0 0 1720 38" fill="none" xmlns="http://www.w3.org/2000/svg">
<path d="M15.5006 33.32C10.6793 33.32 7.12729 32.296 4.84462 30.248C2.56196 28.2 1.42063 25.2773 1.42063 21.48C1.42063 17.6613 2.56196 14.6427 4.84462 12.424C7.12729 10.2053 10.6793 9.096 15.5006 9.096C22.242 9.096 26.754 11.4107 29.0366 16.04C27.1166 16.7013 24.866 17.6933 22.2846 19.016C21.666 17.8213 20.6846 16.936 19.3406 16.36C18.018 15.784 16.6633 15.496 15.2766 15.496C13.2286 15.496 11.7033 16.04 10.7006 17.128C9.69796 18.1947 9.19663 19.5173 9.19663 21.096C9.19663 22.8027 9.72996 24.2 10.7966 25.288C11.8846 26.3547 13.538 26.888 15.7566 26.888C17.5273 26.888 18.9353 26.6 19.9806 26.024C21.026 25.4267 21.794 24.488 22.2846 23.208C24.034 24.1467 26.274 25.2027 29.0046 26.376C27.938 28.9573 26.1566 30.76 23.6606 31.784C21.1646 32.808 18.4446 33.32 15.5006 33.32ZM51.8001 33C51.3948 31.784 50.8508 30.2587 50.1681 28.424H39.9601L38.3601 33H30.3281L39.2881 9.768H51.0641L60.0881 33H51.8001ZM48.3441 23.432C47.5335 21.192 46.7015 18.952 45.8481 16.712L45.0801 14.632C44.3335 16.5733 43.2348 19.5067 41.7841 23.432H48.3441ZM68.9786 26.536C75.1653 26.4933 80.2853 26.3867 84.3386 26.216C84.0613 27.304 83.8906 28.3493 83.8266 29.352C83.7626 30.3547 83.7306 31.5707 83.7306 33H61.1706C61.3413 28.8613 61.4266 24.9893 61.4266 21.384C61.4266 17.7787 61.3413 13.9067 61.1706 9.768H68.9786V26.536ZM94.4414 27.144C102.548 27.1013 108.425 26.984 112.073 26.792C111.924 27.6667 111.828 28.5733 111.785 29.512C111.764 30.4293 111.753 31.592 111.753 33H86.8894C87.06 28.8613 87.1454 24.9893 87.1454 21.384C87.1454 17.7787 87.06 13.9067 86.8894 9.768H111.753V15.56H94.4414V18.632C95.4654 18.6533 96.98 18.664 98.9854 18.664C102.377 18.664 105.887 18.6 109.513 18.472V23.976C105.887 23.848 102.377 23.784 98.9854 23.784C96.98 23.784 95.4654 23.7947 94.4414 23.816V27.144ZM141.487 9.8C141.338 13.4053 141.263 17.2667 141.263 21.384C141.263 25.5227 141.338 29.3947 141.487 33H130.031L122.287 15.528L122.863 33H114.639C114.81 28.8613 114.895 24.9893 114.895 21.384C114.895 17.8 114.81 13.9387 114.639 9.8H126.415L134.191 27.752L133.647 9.8H141.487ZM154.286 9.416C158.296 9.416 161.464 9.90667 163.79 10.888C166.115 11.848 167.736 13.192 168.654 14.92C169.592 16.6267 170.062 18.728 170.062 21.224C170.062 23.592 169.528 25.6613 168.462 27.432C167.395 29.2027 165.795 30.5787 163.662 31.56C161.528 32.52 158.904 33 155.79 33C153.891 33 151.96 33 149.998 33C148.035 33 146.051 32.9893 144.046 32.968C144.216 28.7653 144.302 24.8507 144.302 21.224C144.302 17.5547 144.216 13.7253 144.046 9.736C146.584 9.52267 149.998 9.416 154.286 9.416ZM156.686 26.632C158.67 26.632 159.992 26.152 160.654 25.192C161.315 24.232 161.646 22.9093 161.646 21.224C161.646 19.6027 161.294 18.2907 160.59 17.288C159.907 16.2853 158.606 15.784 156.686 15.784C154.616 15.784 153.07 15.848 152.046 15.976V26.632H156.686ZM190.894 33C190.489 31.784 189.945 30.2587 189.262 28.424H179.054L177.454 33H169.422L178.382 9.768H190.158L199.182 33H190.894ZM187.438 23.432C186.627 21.192 185.795 18.952 184.942 16.712L184.174 14.632C183.427 16.5733 182.329 19.5067 180.878 23.432H187.438ZM226.585 17.512C226.585 19.368 226.127 20.936 225.209 22.216C224.313 23.496 222.767 24.424 220.569 25C220.825 25.3413 221.007 25.608 221.113 25.8L226.297 33H217.593C216.655 31.2507 215.172 28.776 213.145 25.576H208.441V33H200.889C201.06 28.8613 201.145 24.9893 201.145 21.384C201.145 17.7787 201.06 13.9067 200.889 9.768H208.441V9.8H215.001C219.311 9.8 222.319 10.4933 224.025 11.88C225.732 13.2667 226.585 15.144 226.585 17.512ZM208.441 15.944V19.592H212.761C214.575 19.592 215.94 19.5387 216.857 19.432C217.796 19.304 218.447 19.112 218.809 18.856C219.172 18.6 219.353 18.2267 219.353 17.736C219.353 17.2667 219.183 16.904 218.841 16.648C218.5 16.392 217.86 16.2107 216.921 16.104C215.983 15.9973 214.596 15.944 212.761 15.944H208.441Z" fill="#FFAF00"/>
<path d="M267.501 33.32C262.679 33.32 259.127 32.296 256.845 30.248C254.562 28.2 253.421 25.2773 253.421 21.48C253.421 17.6613 254.562 14.6427 256.845 12.424C259.127 10.2053 262.679 9.096 267.501 9.096C274.242 9.096 278.754 11.4107 281.037 16.04C279.117 16.7013 276.866 17.6933 274.285 19.016C273.666 17.8213 272.685 16.936 271.341 16.36C270.018 15.784 268.663 15.496 267.277 15.496C265.229 15.496 263.703 16.04 262.701 17.128C261.698 18.1947 261.197 19.5173 261.197 21.096C261.197 22.8027 261.73 24.2 262.797 25.288C263.885 26.3547 265.538 26.888 267.757 26.888C269.527 26.888 270.935 26.6 271.981 26.024C273.026 25.4267 273.794 24.488 274.285 23.208C276.034 24.1467 278.274 25.2027 281.005 26.376C279.938 28.9573 278.157 30.76 275.661 31.784C273.165 32.808 270.445 33.32 267.501 33.32ZM303.8 33C303.395 31.784 302.851 30.2587 302.168 28.424H291.96L290.36 33H282.328L291.288 9.768H303.064L312.088 33H303.8ZM300.344 23.432C299.533 21.192 298.701 18.952 297.848 16.712L297.08 14.632C296.333 16.5733 295.235 19.5067 293.784 23.432H300.344ZM320.979 26.536C327.165 26.4933 332.285 26.3867 336.339 26.216C336.061 27.304 335.891 28.3493 335.827 29.352C335.763 30.3547 335.731 31.5707 335.731 33H313.171C313.341 28.8613 313.427 24.9893 313.427 21.384C313.427 17.7787 313.341 13.9067 313.171 9.768H320.979V26.536ZM346.441 27.144C354.548 27.1013 360.425 26.984 364.073 26.792C363.924 27.6667 363.828 28.5733 363.785 29.512C363.764 30.4293 363.753 31.592 363.753 33H338.889C339.06 28.8613 339.145 24.9893 339.145 21.384C339.145 17.7787 339.06 13.9067 338.889 9.768H363.753V15.56H346.441V18.632C347.465 18.6533 348.98 18.664 350.985 18.664C354.377 18.664 357.887 18.6 361.513 18.472V23.976C357.887 23.848 354.377 23.784 350.985 23.784C348.98 23.784 347.465 23.7947 346.441 23.816V27.144ZM393.487 9.8C393.338 13.4053 393.263 17.2667 393.263 21.384C393.263 25.5227 393.338 29.3947 393.487 33H382.031L374.287 15.528L374.863 33H366.639C366.81 28.8613 366.895 24.9893 366.895 21.384C366.895 17.8 366.81 13.9387 366.639 9.8H378.415L386.191 27.752L385.647 9.8H393.487ZM406.286 9.416C410.296 9.416 413.464 9.90667 415.79 10.888C418.115 11.848 419.736 13.192 420.654 14.92C421.592 16.6267 422.062 18.728 422.062 21.224C422.062 23.592 421.528 25.6613 420.462 27.432C419.395 29.2027 417.795 30.5787 415.662 31.56C413.528 32.52 410.904 33 407.79 33C405.891 33 403.96 33 401.998 33C400.035 33 398.051 32.9893 396.046 32.968C396.216 28.7653 396.302 24.8507 396.302 21.224C396.302 17.5547 396.216 13.7253 396.046 9.736C398.584 9.52267 401.998 9.416 406.286 9.416ZM408.686 26.632C410.67 26.632 411.992 26.152 412.654 25.192C413.315 24.232 413.646 22.9093 413.646 21.224C413.646 19.6027 413.294 18.2907 412.59 17.288C411.907 16.2853 410.606 15.784 408.686 15.784C406.616 15.784 405.07 15.848 404.046 15.976V26.632H408.686ZM442.894 33C442.489 31.784 441.945 30.2587 441.262 28.424H431.054L429.454 33H421.422L430.382 9.768H442.158L451.182 33H442.894ZM439.438 23.432C438.627 21.192 437.795 18.952 436.942 16.712L436.174 14.632C435.427 16.5733 434.329 19.5067 432.878 23.432H439.438ZM478.585 17.512C478.585 19.368 478.127 20.936 477.209 22.216C476.313 23.496 474.767 24.424 472.569 25C472.825 25.3413 473.007 25.608 473.113 25.8L478.297 33H469.593C468.655 31.2507 467.172 28.776 465.145 25.576H460.441V33H452.889C453.06 28.8613 453.145 24.9893 453.145 21.384C453.145 17.7787 453.06 13.9067 452.889 9.768H460.441V9.8H467.001C471.311 9.8 474.319 10.4933 476.025 11.88C477.732 13.2667 478.585 15.144 478.585 17.512ZM460.441 15.944V19.592H464.761C466.575 19.592 467.94 19.5387 468.857 19.432C469.796 19.304 470.447 19.112 470.809 18.856C471.172 18.6 471.353 18.2267 471.353 17.736C471.353 17.2667 471.183 16.904 470.841 16.648C470.5 16.392 469.86 16.2107 468.921 16.104C467.983 15.9973 466.596 15.944 464.761 15.944H460.441Z" fill="#FFAF00"/>
<path d="M519.501 33.32C514.679 33.32 511.127 32.296 508.845 30.248C506.562 28.2 505.421 25.2773 505.421 21.48C505.421 17.6613 506.562 14.6427 508.845 12.424C511.127 10.2053 514.679 9.096 519.501 9.096C526.242 9.096 530.754 11.4107 533.037 16.04C531.117 16.7013 528.866 17.6933 526.285 19.016C525.666 17.8213 524.685 16.936 523.341 16.36C522.018 15.784 520.663 15.496 519.277 15.496C517.229 15.496 515.703 16.04 514.701 17.128C513.698 18.1947 513.197 19.5173 513.197 21.096C513.197 22.8027 513.73 24.2 514.797 25.288C515.885 26.3547 517.538 26.888 519.757 26.888C521.527 26.888 522.935 26.6 523.981 26.024C525.026 25.4267 525.794 24.488 526.285 23.208C528.034 24.1467 530.274 25.2027 533.005 26.376C531.938 28.9573 530.157 30.76 527.661 31.784C525.165 32.808 522.445 33.32 519.501 33.32ZM555.8 33C555.395 31.784 554.851 30.2587 554.168 28.424H543.96L542.36 33H534.328L543.288 9.768H555.064L564.088 33H555.8ZM552.344 23.432C551.533 21.192 550.701 18.952 549.848 16.712L549.08 14.632C548.333 16.5733 547.235 19.5067 545.784 23.432H552.344ZM572.979 26.536C579.165 26.4933 584.285 26.3867 588.339 26.216C588.061 27.304 587.891 28.3493 587.827 29.352C587.763 30.3547 587.731 31.5707 587.731 33H565.171C565.341 28.8613 565.427 24.9893 565.427 21.384C565.427 17.7787 565.341 13.9067 565.171 9.768H572.979V26.536ZM598.441 27.144C606.548 27.1013 612.425 26.984 616.073 26.792C615.924 27.6667 615.828 28.5733 615.785 29.512C615.764 30.4293 615.753 31.592 615.753 33H590.889C591.06 28.8613 591.145 24.9893 591.145 21.384C591.145 17.7787 591.06 13.9067 590.889 9.768H615.753V15.56H598.441V18.632C599.465 18.6533 600.98 18.664 602.985 18.664C606.377 18.664 609.887 18.6 613.513 18.472V23.976C609.887 23.848 606.377 23.784 602.985 23.784C600.98 23.784 599.465 23.7947 598.441 23.816V27.144ZM645.487 9.8C645.338 13.4053 645.263 17.2667 645.263 21.384C645.263 25.5227 645.338 29.3947 645.487 33H634.031L626.287 15.528L626.863 33H618.639C618.81 28.8613 618.895 24.9893 618.895 21.384C618.895 17.8 618.81 13.9387 618.639 9.8H630.415L638.191 27.752L637.647 9.8H645.487ZM658.286 9.416C662.296 9.416 665.464 9.90667 667.79 10.888C670.115 11.848 671.736 13.192 672.654 14.92C673.592 16.6267 674.062 18.728 674.062 21.224C674.062 23.592 673.528 25.6613 672.462 27.432C671.395 29.2027 669.795 30.5787 667.662 31.56C665.528 32.52 662.904 33 659.79 33C657.891 33 655.96 33 653.998 33C652.035 33 650.051 32.9893 648.046 32.968C648.216 28.7653 648.302 24.8507 648.302 21.224C648.302 17.5547 648.216 13.7253 648.046 9.736C650.584 9.52267 653.998 9.416 658.286 9.416ZM660.686 26.632C662.67 26.632 663.992 26.152 664.654 25.192C665.315 24.232 665.646 22.9093 665.646 21.224C665.646 19.6027 665.294 18.2907 664.59 17.288C663.907 16.2853 662.606 15.784 660.686 15.784C658.616 15.784 657.07 15.848 656.046 15.976V26.632H660.686ZM694.894 33C694.489 31.784 693.945 30.2587 693.262 28.424H683.054L681.454 33H673.422L682.382 9.768H694.158L703.182 33H694.894ZM691.438 23.432C690.627 21.192 689.795 18.952 688.942 16.712L688.174 14.632C687.427 16.5733 686.329 19.5067 684.878 23.432H691.438ZM730.585 17.512C730.585 19.368 730.127 20.936 729.209 22.216C728.313 23.496 726.767 24.424 724.569 25C724.825 25.3413 725.007 25.608 725.113 25.8L730.297 33H721.593C720.655 31.2507 719.172 28.776 717.145 25.576H712.441V33H704.889C705.06 28.8613 705.145 24.9893 705.145 21.384C705.145 17.7787 705.06 13.9067 704.889 9.768H712.441V9.8H719.001C723.311 9.8 726.319 10.4933 728.025 11.88C729.732 13.2667 730.585 15.144 730.585 17.512ZM712.441 15.944V19.592H716.761C718.575 19.592 719.94 19.5387 720.857 19.432C721.796 19.304 722.447 19.112 722.809 18.856C723.172 18.6 723.353 18.2267 723.353 17.736C723.353 17.2667 723.183 16.904 722.841 16.648C722.5 16.392 721.86 16.2107 720.921 16.104C719.983 15.9973 718.596 15.944 716.761 15.944H712.441Z" fill="#FFAF00"/>
<path d="M771.501 33.32C766.679 33.32 763.127 32.296 760.845 30.248C758.562 28.2 757.421 25.2773 757.421 21.48C757.421 17.6613 758.562 14.6427 760.845 12.424C763.127 10.2053 766.679 9.096 771.501 9.096C778.242 9.096 782.754 11.4107 785.037 16.04C783.117 16.7013 780.866 17.6933 778.285 19.016C777.666 17.8213 776.685 16.936 775.341 16.36C774.018 15.784 772.663 15.496 771.277 15.496C769.229 15.496 767.703 16.04 766.701 17.128C765.698 18.1947 765.197 19.5173 765.197 21.096C765.197 22.8027 765.73 24.2 766.797 25.288C767.885 26.3547 769.538 26.888 771.757 26.888C773.527 26.888 774.935 26.6 775.981 26.024C777.026 25.4267 777.794 24.488 778.285 23.208C780.034 24.1467 782.274 25.2027 785.005 26.376C783.938 28.9573 782.157 30.76 779.661 31.784C777.165 32.808 774.445 33.32 771.501 33.32ZM807.8 33C807.395 31.784 806.851 30.2587 806.168 28.424H795.96L794.36 33H786.328L795.288 9.768H807.064L816.088 33H807.8ZM804.344 23.432C803.533 21.192 802.701 18.952 801.848 16.712L801.08 14.632C800.333 16.5733 799.235 19.5067 797.784 23.432H804.344ZM824.979 26.536C831.165 26.4933 836.285 26.3867 840.339 26.216C840.061 27.304 839.891 28.3493 839.827 29.352C839.763 30.3547 839.731 31.5707 839.731 33H817.171C817.341 28.8613 817.427 24.9893 817.427 21.384C817.427 17.7787 817.341 13.9067 817.171 9.768H824.979V26.536ZM850.441 27.144C858.548 27.1013 864.425 26.984 868.073 26.792C867.924 27.6667 867.828 28.5733 867.785 29.512C867.764 30.4293 867.753 31.592 867.753 33H842.889C843.06 28.8613 843.145 24.9893 843.145 21.384C843.145 17.7787 843.06 13.9067 842.889 9.768H867.753V15.56H850.441V18.632C851.465 18.6533 852.98 18.664 854.985 18.664C858.377 18.664 861.887 18.6 865.513 18.472V23.976C861.887 23.848 858.377 23.784 854.985 23.784C852.98 23.784 851.465 23.7947 850.441 23.816V27.144ZM897.487 9.8C897.338 13.4053 897.263 17.2667 897.263 21.384C897.263 25.5227 897.338 29.3947 897.487 33H886.031L878.287 15.528L878.863 33H870.639C870.81 28.8613 870.895 24.9893 870.895 21.384C870.895 17.8 870.81 13.9387 870.639 9.8H882.415L890.191 27.752L889.647 9.8H897.487ZM910.286 9.416C914.296 9.416 917.464 9.90667 919.79 10.888C922.115 11.848 923.736 13.192 924.654 14.92C925.592 16.6267 926.062 18.728 926.062 21.224C926.062 23.592 925.528 25.6613 924.462 27.432C923.395 29.2027 921.795 30.5787 919.662 31.56C917.528 32.52 914.904 33 911.79 33C909.891 33 907.96 33 905.998 33C904.035 33 902.051 32.9893 900.046 32.968C900.216 28.7653 900.302 24.8507 900.302 21.224C900.302 17.5547 900.216 13.7253 900.046 9.736C902.584 9.52267 905.998 9.416 910.286 9.416ZM912.686 26.632C914.67 26.632 915.992 26.152 916.654 25.192C917.315 24.232 917.646 22.9093 917.646 21.224C917.646 19.6027 917.294 18.2907 916.59 17.288C915.907 16.2853 914.606 15.784 912.686 15.784C910.616 15.784 909.07 15.848 908.046 15.976V26.632H912.686ZM946.894 33C946.489 31.784 945.945 30.2587 945.262 28.424H935.054L933.454 33H925.422L934.382 9.768H946.158L955.182 33H946.894ZM943.438 23.432C942.627 21.192 941.795 18.952 940.942 16.712L940.174 14.632C939.427 16.5733 938.329 19.5067 936.878 23.432H943.438ZM982.585 17.512C982.585 19.368 982.127 20.936 981.209 22.216C980.313 23.496 978.767 24.424 976.569 25C976.825 25.3413 977.007 25.608 977.113 25.8L982.297 33H973.593C972.655 31.2507 971.172 28.776 969.145 25.576H964.441V33H956.889C957.06 28.8613 957.145 24.9893 957.145 21.384C957.145 17.7787 957.06 13.9067 956.889 9.768H964.441V9.8H971.001C975.311 9.8 978.319 10.4933 980.025 11.88C981.732 13.2667 982.585 15.144 982.585 17.512ZM964.441 15.944V19.592H968.761C970.575 19.592 971.94 19.5387 972.857 19.432C973.796 19.304 974.447 19.112 974.809 18.856C975.172 18.6 975.353 18.2267 975.353 17.736C975.353 17.2667 975.183 16.904 974.841 16.648C974.5 16.392 973.86 16.2107 972.921 16.104C971.983 15.9973 970.596 15.944 968.761 15.944H964.441Z" fill="#FFAF00"/>
<path d="M1023.5 33.32C1018.68 33.32 1015.13 32.296 1012.84 30.248C1010.56 28.2 1009.42 25.2773 1009.42 21.48C1009.42 17.6613 1010.56 14.6427 1012.84 12.424C1015.13 10.2053 1018.68 9.096 1023.5 9.096C1030.24 9.096 1034.75 11.4107 1037.04 16.04C1035.12 16.7013 1032.87 17.6933 1030.28 19.016C1029.67 17.8213 1028.68 16.936 1027.34 16.36C1026.02 15.784 1024.66 15.496 1023.28 15.496C1021.23 15.496 1019.7 16.04 1018.7 17.128C1017.7 18.1947 1017.2 19.5173 1017.2 21.096C1017.2 22.8027 1017.73 24.2 1018.8 25.288C1019.88 26.3547 1021.54 26.888 1023.76 26.888C1025.53 26.888 1026.94 26.6 1027.98 26.024C1029.03 25.4267 1029.79 24.488 1030.28 23.208C1032.03 24.1467 1034.27 25.2027 1037 26.376C1035.94 28.9573 1034.16 30.76 1031.66 31.784C1029.16 32.808 1026.44 33.32 1023.5 33.32ZM1059.8 33C1059.39 31.784 1058.85 30.2587 1058.17 28.424H1047.96L1046.36 33H1038.33L1047.29 9.768H1059.06L1068.09 33H1059.8ZM1056.34 23.432C1055.53 21.192 1054.7 18.952 1053.85 16.712L1053.08 14.632C1052.33 16.5733 1051.23 19.5067 1049.78 23.432H1056.34ZM1076.98 26.536C1083.17 26.4933 1088.29 26.3867 1092.34 26.216C1092.06 27.304 1091.89 28.3493 1091.83 29.352C1091.76 30.3547 1091.73 31.5707 1091.73 33H1069.17C1069.34 28.8613 1069.43 24.9893 1069.43 21.384C1069.43 17.7787 1069.34 13.9067 1069.17 9.768H1076.98V26.536ZM1102.44 27.144C1110.55 27.1013 1116.43 26.984 1120.07 26.792C1119.92 27.6667 1119.83 28.5733 1119.79 29.512C1119.76 30.4293 1119.75 31.592 1119.75 33H1094.89C1095.06 28.8613 1095.15 24.9893 1095.15 21.384C1095.15 17.7787 1095.06 13.9067 1094.89 9.768H1119.75V15.56H1102.44V18.632C1103.47 18.6533 1104.98 18.664 1106.99 18.664C1110.38 18.664 1113.89 18.6 1117.51 18.472V23.976C1113.89 23.848 1110.38 23.784 1106.99 23.784C1104.98 23.784 1103.47 23.7947 1102.44 23.816V27.144ZM1149.49 9.8C1149.34 13.4053 1149.26 17.2667 1149.26 21.384C1149.26 25.5227 1149.34 29.3947 1149.49 33H1138.03L1130.29 15.528L1130.86 33H1122.64C1122.81 28.8613 1122.9 24.9893 1122.9 21.384C1122.9 17.8 1122.81 13.9387 1122.64 9.8H1134.42L1142.19 27.752L1141.65 9.8H1149.49ZM1162.29 9.416C1166.3 9.416 1169.46 9.90667 1171.79 10.888C1174.11 11.848 1175.74 13.192 1176.65 14.92C1177.59 16.6267 1178.06 18.728 1178.06 21.224C1178.06 23.592 1177.53 25.6613 1176.46 27.432C1175.39 29.2027 1173.79 30.5787 1171.66 31.56C1169.53 32.52 1166.9 33 1163.79 33C1161.89 33 1159.96 33 1158 33C1156.03 33 1154.05 32.9893 1152.05 32.968C1152.22 28.7653 1152.3 24.8507 1152.3 21.224C1152.3 17.5547 1152.22 13.7253 1152.05 9.736C1154.58 9.52267 1158 9.416 1162.29 9.416ZM1164.69 26.632C1166.67 26.632 1167.99 26.152 1168.65 25.192C1169.31 24.232 1169.65 22.9093 1169.65 21.224C1169.65 19.6027 1169.29 18.2907 1168.59 17.288C1167.91 16.2853 1166.61 15.784 1164.69 15.784C1162.62 15.784 1161.07 15.848 1160.05 15.976V26.632H1164.69ZM1198.89 33C1198.49 31.784 1197.94 30.2587 1197.26 28.424H1187.05L1185.45 33H1177.42L1186.38 9.768H1198.16L1207.18 33H1198.89ZM1195.44 23.432C1194.63 21.192 1193.8 18.952 1192.94 16.712L1192.17 14.632C1191.43 16.5733 1190.33 19.5067 1188.88 23.432H1195.44ZM1234.59 17.512C1234.59 19.368 1234.13 20.936 1233.21 22.216C1232.31 23.496 1230.77 24.424 1228.57 25C1228.83 25.3413 1229.01 25.608 1229.11 25.8L1234.3 33H1225.59C1224.65 31.2507 1223.17 28.776 1221.15 25.576H1216.44V33H1208.89C1209.06 28.8613 1209.15 24.9893 1209.15 21.384C1209.15 17.7787 1209.06 13.9067 1208.89 9.768H1216.44V9.8H1223C1227.31 9.8 1230.32 10.4933 1232.03 11.88C1233.73 13.2667 1234.59 15.144 1234.59 17.512ZM1216.44 15.944V19.592H1220.76C1222.57 19.592 1223.94 19.5387 1224.86 19.432C1225.8 19.304 1226.45 19.112 1226.81 18.856C1227.17 18.6 1227.35 18.2267 1227.35 17.736C1227.35 17.2667 1227.18 16.904 1226.84 16.648C1226.5 16.392 1225.86 16.2107 1224.92 16.104C1223.98 15.9973 1222.6 15.944 1220.76 15.944H1216.44Z" fill="#FFAF00"/>
<path d="M1275.5 33.32C1270.68 33.32 1267.13 32.296 1264.84 30.248C1262.56 28.2 1261.42 25.2773 1261.42 21.48C1261.42 17.6613 1262.56 14.6427 1264.84 12.424C1267.13 10.2053 1270.68 9.096 1275.5 9.096C1282.24 9.096 1286.75 11.4107 1289.04 16.04C1287.12 16.7013 1284.87 17.6933 1282.28 19.016C1281.67 17.8213 1280.68 16.936 1279.34 16.36C1278.02 15.784 1276.66 15.496 1275.28 15.496C1273.23 15.496 1271.7 16.04 1270.7 17.128C1269.7 18.1947 1269.2 19.5173 1269.2 21.096C1269.2 22.8027 1269.73 24.2 1270.8 25.288C1271.88 26.3547 1273.54 26.888 1275.76 26.888C1277.53 26.888 1278.94 26.6 1279.98 26.024C1281.03 25.4267 1281.79 24.488 1282.28 23.208C1284.03 24.1467 1286.27 25.2027 1289 26.376C1287.94 28.9573 1286.16 30.76 1283.66 31.784C1281.16 32.808 1278.44 33.32 1275.5 33.32ZM1311.8 33C1311.39 31.784 1310.85 30.2587 1310.17 28.424H1299.96L1298.36 33H1290.33L1299.29 9.768H1311.06L1320.09 33H1311.8ZM1308.34 23.432C1307.53 21.192 1306.7 18.952 1305.85 16.712L1305.08 14.632C1304.33 16.5733 1303.23 19.5067 1301.78 23.432H1308.34ZM1328.98 26.536C1335.17 26.4933 1340.29 26.3867 1344.34 26.216C1344.06 27.304 1343.89 28.3493 1343.83 29.352C1343.76 30.3547 1343.73 31.5707 1343.73 33H1321.17C1321.34 28.8613 1321.43 24.9893 1321.43 21.384C1321.43 17.7787 1321.34 13.9067 1321.17 9.768H1328.98V26.536ZM1354.44 27.144C1362.55 27.1013 1368.43 26.984 1372.07 26.792C1371.92 27.6667 1371.83 28.5733 1371.79 29.512C1371.76 30.4293 1371.75 31.592 1371.75 33H1346.89C1347.06 28.8613 1347.15 24.9893 1347.15 21.384C1347.15 17.7787 1347.06 13.9067 1346.89 9.768H1371.75V15.56H1354.44V18.632C1355.47 18.6533 1356.98 18.664 1358.99 18.664C1362.38 18.664 1365.89 18.6 1369.51 18.472V23.976C1365.89 23.848 1362.38 23.784 1358.99 23.784C1356.98 23.784 1355.47 23.7947 1354.44 23.816V27.144ZM1401.49 9.8C1401.34 13.4053 1401.26 17.2667 1401.26 21.384C1401.26 25.5227 1401.34 29.3947 1401.49 33H1390.03L1382.29 15.528L1382.86 33H1374.64C1374.81 28.8613 1374.9 24.9893 1374.9 21.384C1374.9 17.8 1374.81 13.9387 1374.64 9.8H1386.42L1394.19 27.752L1393.65 9.8H1401.49ZM1414.29 9.416C1418.3 9.416 1421.46 9.90667 1423.79 10.888C1426.11 11.848 1427.74 13.192 1428.65 14.92C1429.59 16.6267 1430.06 18.728 1430.06 21.224C1430.06 23.592 1429.53 25.6613 1428.46 27.432C1427.39 29.2027 1425.79 30.5787 1423.66 31.56C1421.53 32.52 1418.9 33 1415.79 33C1413.89 33 1411.96 33 1410 33C1408.03 33 1406.05 32.9893 1404.05 32.968C1404.22 28.7653 1404.3 24.8507 1404.3 21.224C1404.3 17.5547 1404.22 13.7253 1404.05 9.736C1406.58 9.52267 1410 9.416 1414.29 9.416ZM1416.69 26.632C1418.67 26.632 1419.99 26.152 1420.65 25.192C1421.31 24.232 1421.65 22.9093 1421.65 21.224C1421.65 19.6027 1421.29 18.2907 1420.59 17.288C1419.91 16.2853 1418.61 15.784 1416.69 15.784C1414.62 15.784 1413.07 15.848 1412.05 15.976V26.632H1416.69ZM1450.89 33C1450.49 31.784 1449.94 30.2587 1449.26 28.424H1439.05L1437.45 33H1429.42L1438.38 9.768H1450.16L1459.18 33H1450.89ZM1447.44 23.432C1446.63 21.192 1445.8 18.952 1444.94 16.712L1444.17 14.632C1443.43 16.5733 1442.33 19.5067 1440.88 23.432H1447.44ZM1486.59 17.512C1486.59 19.368 1486.13 20.936 1485.21 22.216C1484.31 23.496 1482.77 24.424 1480.57 25C1480.83 25.3413 1481.01 25.608 1481.11 25.8L1486.3 33H1477.59C1476.65 31.2507 1475.17 28.776 1473.15 25.576H1468.44V33H1460.89C1461.06 28.8613 1461.15 24.9893 1461.15 21.384C1461.15 17.7787 1461.06 13.9067 1460.89 9.768H1468.44V9.8H1475C1479.31 9.8 1482.32 10.4933 1484.03 11.88C1485.73 13.2667 1486.59 15.144 1486.59 17.512ZM1468.44 15.944V19.592H1472.76C1474.57 19.592 1475.94 19.5387 1476.86 19.432C1477.8 19.304 1478.45 19.112 1478.81 18.856C1479.17 18.6 1479.35 18.2267 1479.35 17.736C1479.35 17.2667 1479.18 16.904 1478.84 16.648C1478.5 16.392 1477.86 16.2107 1476.92 16.104C1475.98 15.9973 1474.6 15.944 1472.76 15.944H1468.44Z" fill="#FFAF00"/>
<path d="M1532.44 21.448C1537.3 21.448 1539.73 22.9947 1539.73 26.088C1539.73 27.5387 1539.4 28.776 1538.74 29.8C1538.08 30.8027 1536.9 31.592 1535.19 32.168C1533.48 32.7227 1531.12 33 1528.09 33H1513.69C1513.86 28.8613 1513.94 24.9893 1513.94 21.384C1513.94 17.7787 1513.86 13.9067 1513.69 9.768H1521.21V9.8H1528.02C1530.67 9.8 1532.75 10.024 1534.26 10.472C1535.8 10.8987 1536.88 11.528 1537.49 12.36C1538.13 13.192 1538.45 14.248 1538.45 15.528C1538.45 16.8293 1538 17.992 1537.08 19.016C1536.18 20.0187 1534.64 20.8293 1532.44 21.448ZM1521.21 15.624V18.6H1527.35C1528.67 18.6 1529.59 18.4827 1530.1 18.248C1530.64 18.0133 1530.9 17.5867 1530.9 16.968C1530.9 16.4773 1530.62 16.136 1530.07 15.944C1529.54 15.7307 1528.63 15.624 1527.35 15.624H1521.21ZM1527.35 27.144C1528.46 27.144 1529.3 27.1013 1529.88 27.016C1530.48 26.9093 1530.9 26.7387 1531.16 26.504C1531.41 26.248 1531.54 25.9067 1531.54 25.48C1531.54 24.9253 1531.23 24.5307 1530.61 24.296C1530.02 24.04 1528.93 23.912 1527.35 23.912H1521.21V27.144H1527.35ZM1560.57 33C1560.16 31.784 1559.62 30.2587 1558.93 28.424H1548.73L1547.13 33H1539.09L1548.05 9.768H1559.83L1568.85 33H1560.57ZM1557.11 23.432C1556.3 21.192 1555.47 18.952 1554.61 16.712L1553.85 14.632C1553.1 16.5733 1552 19.5067 1550.55 23.432H1557.11ZM1596.78 9.8C1596.63 13.4053 1596.56 17.2667 1596.56 21.384C1596.56 25.5227 1596.63 29.3947 1596.78 33H1585.33L1577.58 15.528L1578.16 33H1569.94C1570.11 28.8613 1570.19 24.9893 1570.19 21.384C1570.19 17.8 1570.11 13.9387 1569.94 9.8H1581.71L1589.49 27.752L1588.94 9.8H1596.78ZM1609.58 9.416C1613.59 9.416 1616.76 9.90667 1619.09 10.888C1621.41 11.848 1623.03 13.192 1623.95 14.92C1624.89 16.6267 1625.36 18.728 1625.36 21.224C1625.36 23.592 1624.83 25.6613 1623.76 27.432C1622.69 29.2027 1621.09 30.5787 1618.96 31.56C1616.83 32.52 1614.2 33 1611.09 33C1609.19 33 1607.26 33 1605.29 33C1603.33 33 1601.35 32.9893 1599.34 32.968C1599.51 28.7653 1599.6 24.8507 1599.6 21.224C1599.6 17.5547 1599.51 13.7253 1599.34 9.736C1601.88 9.52267 1605.29 9.416 1609.58 9.416ZM1611.98 26.632C1613.97 26.632 1615.29 26.152 1615.95 25.192C1616.61 24.232 1616.94 22.9093 1616.94 21.224C1616.94 19.6027 1616.59 18.2907 1615.89 17.288C1615.2 16.2853 1613.9 15.784 1611.98 15.784C1609.91 15.784 1608.37 15.848 1607.34 15.976V26.632H1611.98ZM1657.2 9.768L1659.7 33H1651.41L1650.9 16.424L1647.7 33H1639.31L1636.05 16.552L1635.57 33H1627.28L1629.78 9.768H1640.66L1643.44 24.904L1645.87 9.768H1657.2ZM1682.44 33C1682.04 31.784 1681.49 30.2587 1680.81 28.424H1670.6L1669 33H1660.97L1669.93 9.768H1681.7L1690.73 33H1682.44ZM1678.98 23.432C1678.17 21.192 1677.34 18.952 1676.49 16.712L1675.72 14.632C1674.97 16.5733 1673.88 19.5067 1672.42 23.432H1678.98ZM1706.96 9.8C1711.21 9.8 1714.16 10.5573 1715.83 12.072C1717.49 13.5653 1718.32 15.6773 1718.32 18.408C1718.32 20.2853 1717.99 21.8853 1717.33 23.208C1716.67 24.5093 1715.51 25.5333 1713.84 26.28C1712.18 27.0053 1709.89 27.368 1706.96 27.368H1700.31V33H1692.44C1692.61 28.8613 1692.69 24.9893 1692.69 21.384C1692.69 17.7787 1692.61 13.9067 1692.44 9.768H1700.31V9.8H1706.96ZM1704.72 21.192C1706.49 21.192 1707.82 21.128 1708.69 21C1709.59 20.8507 1710.21 20.5947 1710.55 20.232C1710.91 19.8693 1711.09 19.336 1711.09 18.632C1711.09 17.928 1710.92 17.4053 1710.58 17.064C1710.26 16.7013 1709.65 16.456 1708.76 16.328C1707.88 16.2 1706.54 16.136 1704.72 16.136H1700.31V21.192H1704.72Z" fill="#FFAF00"/>
</svg>
