<svg width="561" height="300" viewBox="0 0 561 300" fill="none" xmlns="http://www.w3.org/2000/svg">
<circle cx="150" cy="150" r="150" fill="#FFF8E4"/>
<ellipse cx="63.1577" cy="122.368" rx="19.7368" ry="19.7368" fill="#FF4438"/>
<circle cx="181.579" cy="122.368" r="19.7368" fill="#FF4438"/>
<path d="M213.158 161.842C213.158 173.246 210.912 184.539 206.547 195.075C202.183 205.611 195.786 215.185 187.722 223.249C179.658 231.313 170.085 237.71 159.549 242.074C149.013 246.438 137.72 248.684 126.316 248.684C114.911 248.684 103.619 246.438 93.0827 242.074C82.5465 237.71 72.9731 231.313 64.9091 223.249C56.8451 215.185 50.4483 205.611 46.0841 195.075C41.7199 184.539 39.4736 173.246 39.4736 161.842L126.316 161.842H213.158Z" fill="#FF4438"/>
<circle cx="410.526" cy="150" r="150" fill="#0099FF"/>
<ellipse cx="323.684" cy="122.368" rx="19.7368" ry="19.7368" fill="#FFF8E4"/>
<circle cx="442.105" cy="122.368" r="19.7368" fill="#FFF8E4"/>
<path d="M473.684 161.842C473.684 173.246 471.438 184.539 467.074 195.075C462.71 205.611 456.313 215.185 448.249 223.249C440.185 231.313 430.611 237.71 420.075 242.074C409.539 246.438 398.246 248.684 386.842 248.684C375.438 248.684 364.145 246.438 353.609 242.074C343.073 237.71 333.499 231.313 325.435 223.249C317.371 215.185 310.975 205.611 306.61 195.075C302.246 184.539 300 173.246 300 161.842L386.842 161.842H473.684Z" fill="#FFF8E4"/>
</svg>
