<svg id="圖層_1" data-name="圖層 1" xmlns="http://www.w3.org/2000/svg" viewBox="0 0 243.5195 237.70326"><defs><style>.cls-1{fill:#fff;}</style></defs><path class="cls-1" d="M241.45443,118.85163c-19.76609,0-65.3478,14.5774-54.59787,17.46084-10.74993-2.88344,21.44551,32.52664,38.56377,42.41427-17.11826-9.88763-63.88709-20.10108-56.01981-12.23369-7.86728-7.86739,2.34567,38.9015,12.23309,56.01988-9.88742-17.11838-45.29686-49.31432-42.41349-38.56436-2.88337-10.75-17.46037,34.83165-17.46037,54.59775,0-19.7661-14.57739-65.34781-17.46083-54.59788,2.88344-10.74993-32.52665,21.44551-42.41428,38.56377,9.88763-17.11826,20.10108-63.88709,12.23369-56.01981,7.86739-7.86728-38.9015,2.34567-56.01988,12.23309,17.11838-9.88742,49.31432-45.29686,38.56437-42.41349,10.74995-2.88337-34.83166-17.46037-54.59775-17.46037,19.76609,0,65.3478-14.57739,54.59787-17.46083,10.74993,2.88344-21.44551-32.52665-38.56377-42.41428C35.21743,68.86415,81.98626,79.0776,74.119,71.21021c7.86728,7.86739-2.34566-38.9015-12.23309-56.01988,9.88743,17.11838,45.29686,49.31432,42.41349,38.56437C107.18275,64.50465,121.75975,18.923,121.75975-.843c0,19.76609,14.5774,65.3478,17.46084,54.59787-2.88344,10.74993,32.52664-21.44551,42.41427-38.56377-9.88763,17.11826-20.10108,63.88709-12.23369,56.01981-7.86739,7.86728,38.9015-2.34566,56.01988-12.23309-17.11838,9.88743-49.31432,45.29686-38.56436,42.41349C176.10673,104.27463,221.68834,118.85163,241.45443,118.85163Z"/></svg>