<svg width="265" height="38" viewBox="0 0 265 38" fill="none" xmlns="http://www.w3.org/2000/svg">
<g clip-path="url(#clip0_1683_10882)">
<path d="M182.845 22.7481L185.926 22.3367L185.957 18.0099L182.877 18.4216L182.981 4.2207H177.12L177.01 19.2054L173.646 19.6546L173.615 23.9814L176.978 23.5319L176.944 28.176L172.445 28.4793L172.43 34.7633L187.018 32.1213L187.021 27.4964L182.807 27.7805L182.845 22.7481Z" fill="black"/>
<path d="M217.854 30.7809L212.772 29.2908L212.612 32.7363H195.382L196.216 14.8076L199.585 14.2577L198.948 27.9552H204.454L205.134 13.3526L210.475 12.4811L210.138 19.7426L207.127 18.9964L207.397 23.6692L209.955 23.6685V23.6692H214.735L215.579 7.24633L211.55 7.91064L205.34 8.9239L205.757 -0.0478516H200.251L199.791 9.82919L196.422 10.3789L196.708 4.22043H191.202L190.873 11.284L185.65 12.1363L186.069 16.4629L190.667 15.7127L189.939 31.3659L188.676 31.0029L187.804 36.7899L189.687 36.789V36.7899H190.843H195.193H217.226V36.7896L217.574 36.7899L217.854 30.7809Z" fill="black"/>
<path d="M259.12 0.479492L259.118 0.844348H230.988L230.991 0.479492H225.13L224.902 31.3109L223.569 30.9279L222.697 36.7148L224.862 36.7139V36.7148H230.723L230.729 35.9935H258.858L258.853 36.7148H264.714L264.981 0.479492H259.12ZM230.758 32.0192L230.959 4.81866H259.088L258.888 32.0192H230.758Z" fill="black"/>
<path d="M252.057 16.5297H237.727L237.729 16.2637H232.223L232.119 30.3191H237.625L237.627 30.0669H251.957L251.955 30.3191H257.461L257.564 16.2637H252.059L252.057 16.5297ZM237.646 27.448L237.707 19.1486H252.037L251.976 27.448H237.646Z" fill="black"/>
<path d="M245.176 12.2134L246.077 10.7096H254.985C256.066 10.7096 256.9 10.0158 256.907 9.11156L256.916 7.85735C256.924 6.83417 255.878 5.9541 254.656 5.9541H234.84C233.76 5.9541 232.926 6.64791 232.919 7.55219L232.91 8.8064C232.902 9.82956 233.947 10.7096 235.17 10.7096H243.745L244.624 12.2134H232.09L232.07 14.9307H257.684L257.704 12.2134H245.176ZM238.782 8.33188C238.728 7.77679 241.354 7.32682 244.647 7.32682C247.94 7.32682 250.653 7.77679 250.707 8.33188C250.761 8.88696 248.135 9.33693 244.842 9.33693C241.549 9.33693 238.836 8.88696 238.782 8.33188Z" fill="black"/>
<path d="M247.84 20.0713L247.838 20.3244H241.978L241.979 20.0713H239.21L239.162 26.512H241.932L241.934 26.2898H247.794L247.792 26.512H250.562L250.61 20.0713H247.84ZM241.949 24.2366L241.962 22.3775H247.823L247.809 24.2366H241.949Z" fill="black"/>
<path d="M14.7195 17.2287H13.4975L14.787 8.09823L14.8189 3.77148H7.37015H2.5742L2.54218 8.09823L2.36773 31.7216L0.891639 31.2975L0.0195312 37.0844L2.32816 37.0833V37.0881H7.12429L7.33832 8.09823H9.6359L8.34642 17.2287L8.33059 19.3921H10.0098L8.2441 31.1115H13.395L15.4869 17.2287H14.7195Z" fill="black"/>
<path d="M23.2797 16.9307H17.7735L14.7812 36.79H15.9373H20.2874H42.3208L42.3508 32.7364H20.8981L23.2797 16.9307Z" fill="black"/>
<path d="M22.0638 2.93115L16.9129 2.92969L16.0078 8.93637L21.1584 8.94021L22.0638 2.93115Z" fill="black"/>
<path d="M41.2863 15.9994H28.2244V15.9998L26.2212 15.999L25.9932 20.9022H24.9308L24.7981 22.0916H25.9378L25.8931 23.0531H24.6176L24.4849 24.2427H25.8377L25.7475 26.1826L23.4071 25.5103L22.5352 31.2972L25.5096 31.2959V31.2968L29.5332 31.2954L29.8613 24.2427H36.5334L36.6661 23.0531H29.9167L29.9614 22.0916H36.8466L36.9793 20.9022H30.0168L30.0726 19.7011H38.4683L38.1668 26.183L35.8264 25.5107L34.9545 31.2977L37.9289 31.2963V31.2974L41.9525 31.2959L42.6641 16.0009L41.2863 16.0005V15.9994Z" fill="black"/>
<path d="M37.5347 11.6162L37.5422 10.599H41.4994L41.5177 8.11256H32.0165L32.6932 6.82893H43.1881L43.2113 3.69129H34.3476L35.9896 0.577148H30.9643L29.3223 3.69129H24.8015L24.7783 6.82893H27.6679L25.1629 11.5798L22.489 11.2257L22.718 9.70598L17.5672 9.70447L16.6621 15.7111L21.8126 15.715L22.0555 14.1026L23.833 14.1022L23.8327 14.1026H43.6411L43.6594 11.6162L37.5347 11.6162ZM30.7054 10.599H33.408L33.4005 11.6162H30.1691L30.7054 10.599Z" fill="black"/>
<path d="M71.0456 19.1546C73.7743 17.4246 75.1656 15.2121 75.2194 12.5169C75.2723 9.85085 74.1939 7.76591 71.9845 6.26209C69.8491 4.84407 66.9597 4.13496 63.3162 4.13477H51.0761C51.1311 4.52964 51.1612 4.92753 51.1664 5.32612L50.689 29.3883L48.6656 28.807L47.7109 35.1428L50.4061 35.1416L50.4039 35.153H63.5548C67.0846 35.153 69.965 34.4013 72.1962 32.8979C74.4259 31.4232 75.5671 29.3809 75.6197 26.7708C75.6861 23.4241 74.1614 20.8853 71.0456 19.1546ZM59.228 9.32565H61.79C65.0919 9.32565 66.7182 10.5738 66.6688 13.07C66.6175 15.6517 64.9978 16.9423 61.8097 16.942H59.0771L59.228 9.32565ZM61.1512 30.0471H58.7032L58.8738 21.4522H61.4357C63.4469 21.4522 64.8248 21.821 65.5696 22.5584C66.3898 23.2679 66.7847 24.4025 66.7545 25.9624C66.7006 28.6856 64.8329 30.0471 61.1512 30.0471Z" fill="black"/>
<path d="M97.2101 4.43262H89.2967L80.9304 29.4156L78.8121 28.8071L77.8574 35.1428L79.0126 35.1423L79.0091 35.153H87.6056C87.6736 34.6777 87.7781 34.2083 87.9182 33.7489L89.5625 28.1806H96.0204L97.4256 33.7489C97.5466 34.2099 97.6324 34.6792 97.6823 35.153H106.279L97.2101 4.43262ZM90.2804 25.7496L93.0447 16.3889L95.4069 25.7496H90.2804Z" fill="black"/>
<path d="M129.297 4.60352C129.362 4.99729 129.392 5.39592 129.387 5.79489L129.179 21.4629L120.021 4.60352H113.102L112.609 29.4469L110.716 28.9032L109.762 35.2389L112.38 35.2377L112.38 35.2389H119.825C119.793 34.8426 119.782 34.4449 119.791 34.0475L120.078 19.5808L128.492 35.2389H135.722L136.304 5.88002C136.313 5.45127 136.359 5.02411 136.443 4.60352H129.297Z" fill="black"/>
<path d="M152.028 4.51758H143.603C143.668 4.91134 143.698 5.30998 143.693 5.70896L143.225 29.325L141.421 28.807L140.467 35.1428L142.997 35.1416C142.996 35.1454 142.996 35.1492 142.995 35.153H151.307C162.275 35.153 167.861 30.0329 168.065 19.7927C168.267 9.60966 162.921 4.51795 152.028 4.51758ZM159.17 20.4735C159.111 23.452 158.709 25.551 157.963 26.7708C156.9 28.7281 154.696 29.7919 151.353 29.9621L151.751 9.87875C155.354 9.99251 157.627 11.1839 158.569 13.453C159.04 14.5592 159.24 16.8994 159.17 20.4735Z" fill="black"/>
</g>
<defs>
<clipPath id="clip0_1683_10882">
<rect width="265" height="38" fill="white"/>
</clipPath>
</defs>
</svg>
