<svg id="圖層_1" data-name="圖層 1" xmlns="http://www.w3.org/2000/svg" viewBox="0 0 1440 207.98925"><defs><style>.cls-1{fill:#fff;}</style></defs><polygon class="cls-1" points="993.567 124.507 1010.309 122.255 1010.482 98.573 993.741 100.826 994.31 23.099 962.462 23.099 961.861 105.116 943.585 107.575 943.412 131.257 961.687 128.797 961.501 154.216 937.056 155.876 936.973 190.271 1016.243 175.81 1016.26 150.496 993.365 152.051 993.567 124.507"/><polygon class="cls-1" points="1183.811 168.475 1156.197 160.319 1155.326 179.178 1061.699 179.178 1066.231 81.047 1084.542 78.037 1081.08 153.009 1111 153.009 1114.691 73.083 1143.718 68.313 1141.883 108.058 1125.525 103.974 1126.989 129.55 1140.89 129.546 1140.89 129.55 1166.864 129.55 1171.45 39.661 1149.559 43.297 1115.811 48.843 1118.078 -0.263 1088.159 -0.263 1085.662 53.798 1067.35 56.807 1068.907 23.099 1038.987 23.099 1037.202 61.761 1008.82 66.426 1011.095 90.107 1036.082 86.001 1032.125 171.677 1025.261 169.69 1020.522 201.365 1030.754 201.36 1030.754 201.365 1037.036 201.365 1060.674 201.365 1180.403 201.365 1180.403 201.363 1182.292 201.365 1183.811 168.475"/><path class="cls-1" d="M1408.04994,2.62525l-.0146,1.997H1255.18151l.0146-1.997H1223.3474l-1.23646,168.75247-7.24422-2.09622-4.73813,31.67433,11.76549-.00525v.00525h31.84871l.02919-3.94834h152.8536l-.029,3.94834h31.84871l1.45332-198.33058ZM1253.93116,175.25456l1.09117-148.87932h152.85336L1406.785,175.25456Z"/><path class="cls-1" d="M1369.67048,90.47512H1291.802l.0106-1.45588h-29.91833l-.56371,76.93079h29.91832l.01036-1.38019h77.86847l-.01036,1.38019h29.91856l.56371-76.93079h-29.91856Zm-78.30621,59.76044.33272-45.42616h77.86847l-.33272,45.42616Z"/><path class="cls-1" d="M1332.27857,66.85045l4.89683-8.23074h48.40789c5.87215,0,10.40565-3.7975,10.44191-8.74695l.05039-6.86482c.04074-5.6003-5.639-10.41724-12.28328-10.41724H1276.11666c-5.87215,0-10.40565,3.79751-10.44191,8.74695l-.05016,6.86482c-.041,5.60019,5.6388,10.41724,12.28305,10.41724h46.59689l4.776,8.23074H1261.173l-.109,14.87289H1400.2493l.10878-14.87289ZM1297.535,45.60526c-.29175-3.03826,13.97749-5.50114,31.87131-5.50114s32.63636,2.46288,32.9281,5.50114c.292,3.03815-13.97725,5.501-31.87108,5.501C1312.56927,51.10629,1297.827,48.64341,1297.535,45.60526Z"/><path class="cls-1" d="M1346.74819,109.85833l-.01012,1.38523h-31.84565l.00989-1.38523h-15.05076l-.25855,35.2526h15.05123l.00895-1.21637h31.84565l-.00895,1.21637h15.051l.25831-35.2526Zm-32.01283,22.79831.07465-10.17527h31.84564l-.07464,10.17527Z"/><polygon class="cls-1" points="79.98 94.299 73.34 94.299 80.347 44.324 80.52 20.642 40.044 20.642 13.983 20.642 13.809 44.324 13.809 44.324 12.861 173.624 4.84 171.303 0.101 202.977 12.646 202.971 12.646 202.997 38.708 202.997 39.871 44.324 52.356 44.324 45.349 94.299 45.263 106.14 54.388 106.14 44.793 170.285 72.783 170.285 84.15 94.299 79.98 94.299"/><polygon class="cls-1" points="126.501 92.667 96.581 92.667 80.321 201.365 86.603 201.365 110.241 201.365 229.97 201.365 230.133 179.178 113.56 179.178 126.501 92.667"/><polygon class="cls-1" points="119.889 16.042 91.899 16.034 86.981 48.911 114.969 48.932 119.889 16.042"/><polygon class="cls-1" points="224.347 87.569 153.369 87.569 153.369 87.571 142.484 87.567 141.245 114.404 135.472 114.404 134.751 120.914 140.944 120.914 140.701 126.177 133.77 126.177 133.049 132.688 140.4 132.688 139.91 143.306 127.192 139.626 122.454 171.3 138.617 171.293 138.617 171.298 160.481 171.29 162.264 132.688 198.52 132.688 199.241 126.177 162.565 126.177 162.808 120.914 200.222 120.914 200.943 114.404 163.109 114.404 163.412 107.83 209.034 107.83 207.396 143.308 194.678 139.628 189.94 171.303 206.103 171.295 206.103 171.301 227.967 171.293 231.834 87.577 224.347 87.575 224.347 87.569"/><path class="cls-1" d="M203.96549,63.58191l.04073-5.5676h21.50311l.0996-13.60924H173.97935l3.67756-7.02584h57.02892l.12574-17.17356H186.64668l8.92266-17.04492h-27.3072L159.3396,20.20567h-24.566l-.12586,17.17356h15.70195l-13.61216,26.0036-14.5299-1.93821,1.24434-8.31811L95.4624,53.11825l-4.918,32.87656,27.9876.02123,1.32016-8.82511,9.65838-.002-.00117.00225H237.147l.09984-13.60924Zm-37.11028-5.5676h14.686l-.041,5.5676H163.9408Z"/><path class="cls-1" d="M386.05573,104.84317Q408.297,90.64,408.736,68.51249q.43056-21.88866-17.57853-34.2352Q373.7522,22.63521,344.0545,22.6336H277.54228a52.56555,52.56555,0,0,1,.49025,6.52078l-2.59394,131.70211-10.995-3.18159L259.25593,192.353l14.64551-.00665-.01224.0624H345.351q28.77065,0,46.95669-12.3428,18.17486-12.10731,18.60329-33.5362Q411.45245,119.05256,386.05573,104.84317ZM321.83934,51.04539h13.92144q26.91422,0,26.51155,20.49453-.41818,21.19556-26.40417,21.19277H321.019ZM332.29,164.46209h-13.3024l.92705-47.04317h13.921q16.39294,0,22.46383,6.05487,6.68475,5.82458,6.43868,18.63126Q362.29871,164.46247,332.29,164.46209Z"/><path class="cls-1" d="M528.23948,24.26379h-43.001L439.77629,161.00572l-11.51071-3.33082L423.078,192.353l6.27739-.00279-.01931.05843h46.713a51.62564,51.62564,0,0,1,1.69868-7.68506l8.93537-30.47768h35.09183l7.63558,30.47768a51.88766,51.88766,0,0,1,1.39516,7.68506h46.71345ZM490.58409,140.94046l15.02109-51.2352,12.83617,51.2352Z"/><path class="cls-1" d="M702.5943,25.195a37.67294,37.67294,0,0,1,.49049,6.52089l-1.13073,85.75728L652.1868,25.195H614.59051l-2.67823,135.97765-10.28438-2.976-5.1874,34.678,14.22991-.00643-.00118.00643h40.45325a63.93831,63.93831,0,0,1-.18108-6.52078l1.55952-79.18225,45.71694,85.703h39.28862L740.671,32.18181a39.82864,39.82864,0,0,1,.7568-6.98681Z"/><path class="cls-1" d="M826.11307,24.729H780.32784a37.55868,37.55868,0,0,1,.49072,6.52089L778.27313,160.5101l-9.79813-2.8352L763.28736,192.353l13.74791-.00622c-.00424.02069-.00565.04128-.01013.062h45.16665q89.3986,0,91.06066-84.07284Q914.8998,24.73207,826.11307,24.729Zm38.80637,87.33333q-.48141,24.45312-6.55713,34.46742-8.668,16.06986-35.92021,17.46709l2.16561-109.924q29.36721.934,37.04671,19.56332Q865.49022,82.71844,864.91944,112.0623Z"/></svg>