<svg width="49" height="49" viewBox="0 0 49 49" fill="none" xmlns="http://www.w3.org/2000/svg">
<path d="M48.5087 22.5592C44.5605 22.9046 35.7104 26.613 37.9081 27.0011C35.7104 26.613 42.7602 33.1234 46.3523 34.7993C42.7602 33.1234 33.2397 31.9006 34.9487 33.3346C33.2397 31.9006 36.0971 41.0641 38.3712 44.3106C36.0971 41.0641 28.4615 35.2518 29.2253 37.3487C28.4615 35.2518 26.3463 44.6114 26.6918 48.5596C26.3463 44.6114 22.638 35.7613 22.2499 37.959C22.638 35.7613 16.1275 42.8111 14.4517 46.4032C16.1275 42.8111 17.3503 33.2906 15.9163 34.9996C17.3503 33.2906 8.18686 36.148 4.9403 38.4221C8.18686 36.148 13.9991 28.5124 11.9022 29.2762C13.9991 28.5124 4.63957 26.3972 0.691346 26.7426C4.63957 26.3972 13.4896 22.6889 11.292 22.3008C13.4896 22.6889 6.43987 16.1784 2.84776 14.5026C6.43987 16.1784 15.9603 17.4012 14.2514 15.9672C15.9603 17.4012 13.103 8.23775 10.8288 4.99119C13.103 8.23775 20.7386 14.05 19.9748 11.9531C20.7386 14.05 22.8537 4.69045 22.5083 0.742247C22.8537 4.69047 26.5621 13.5405 26.9502 11.3429C26.5621 13.5405 33.0725 6.49077 34.7484 2.89866C33.0725 6.49077 31.8497 16.0112 33.2837 14.3022C31.8497 16.0112 41.0132 13.1539 44.2597 10.8797C41.0132 13.1539 35.2009 20.7895 37.2978 20.0257C35.2009 20.7894 44.5605 22.9046 48.5087 22.5592Z" fill="#0099FF"/>
</svg>
