<svg width="40" height="40" viewBox="0 0 40 40" fill="none" xmlns="http://www.w3.org/2000/svg">
<path d="M19.9997 3.40039C10.833 3.40039 3.33301 10.8837 3.33301 20.1004C3.33301 28.4337 9.43301 35.3504 17.3997 36.6004V24.9337H13.1663V20.1004H17.3997V16.4171C17.3997 12.2337 19.883 9.93372 23.6997 9.93372C25.5163 9.93372 27.4163 10.2504 27.4163 10.2504V14.3671H25.3163C23.2497 14.3671 22.5997 15.6504 22.5997 16.9671V20.1004H27.233L26.483 24.9337H22.5997V36.6004C26.5271 35.9801 30.1034 33.9762 32.6829 30.9505C35.2624 27.9247 36.6753 24.0765 36.6663 20.1004C36.6663 10.8837 29.1663 3.40039 19.9997 3.40039Z" fill="white"/>
</svg>
