<svg width="48" height="49" viewBox="0 0 48 49" fill="none" xmlns="http://www.w3.org/2000/svg">
<rect y="0.5" width="48" height="48" rx="24" fill="white"/>
<path fill-rule="evenodd" clip-rule="evenodd" d="M22.0153 13.0671C22.0152 13.0661 22.015 13.0651 24.5 12.7912C26.985 12.5173 26.9848 12.5163 26.9847 12.5153L26.9845 12.5135L26.9842 12.5102L26.9836 12.5049L26.983 12.5L26.9845 12.5117C26.9869 12.5288 26.992 12.5642 27.0007 12.6161C27.0181 12.7201 27.0497 12.8892 27.102 13.1098C27.207 13.553 27.3923 14.1914 27.7059 14.9214C28.3347 16.3847 29.4484 18.1492 31.4108 19.5045L31.4142 19.5069C34.0193 21.3126 36.7945 22.2332 39.553 22.2917L39.5 24.7912L39.553 27.2906C36.7945 27.3491 34.0193 28.2698 31.4142 30.0754L31.4108 30.0778C29.4484 31.4332 28.3347 33.1977 27.7059 34.661C27.3923 35.391 27.207 36.0294 27.102 36.4725C27.0497 36.6931 27.0181 36.8622 27.0007 36.9663C26.992 37.0182 26.9869 37.0536 26.9845 37.0707L26.983 37.0823L26.9836 37.0774L26.9842 37.0722L26.9845 37.0689L26.9847 37.067C26.9848 37.0661 26.985 37.0651 24.5 36.7912C22.015 36.5173 22.0152 36.5162 22.0153 36.5152L22.0155 36.513L22.0161 36.5082L22.0173 36.4971L22.0207 36.4689C22.0234 36.4474 22.0268 36.4207 22.0312 36.389C22.0399 36.3255 22.0524 36.2418 22.0695 36.1398C22.1036 35.9359 22.1567 35.6575 22.2366 35.3201C22.396 34.6472 22.6652 33.727 23.1121 32.6871C23.8192 31.0413 24.9906 29.0537 26.9067 27.2912H8V22.2912H26.9067C24.9906 20.5287 23.8192 18.541 23.1121 16.8953C22.6652 15.8553 22.396 14.9352 22.2366 14.2623C22.1567 13.9248 22.1036 13.6465 22.0695 13.4426C22.0524 13.3405 22.0399 13.2568 22.0312 13.1934C22.0268 13.1616 22.0234 13.1349 22.0207 13.1135L22.0173 13.0852L22.0161 13.0741L22.0155 13.0693L22.0153 13.0671Z" fill="black"/>
</svg>
