<svg width="60" height="60" viewBox="0 0 60 60" fill="none" xmlns="http://www.w3.org/2000/svg">
<rect y="60" width="60" height="60" rx="30" transform="rotate(-90 0 60)" fill="#FE8DBA"/>
<path fill-rule="evenodd" clip-rule="evenodd" d="M15.7091 32.4809C15.7078 32.481 15.7065 32.4812 15.3641 29.375C15.0217 26.2688 15.0205 26.2689 15.0193 26.2691L15.017 26.2693L15.0128 26.2698L15.0063 26.2706L15.0001 26.2713L15 26.2713C15 26.2713 15.005 26.2707 15.0147 26.2694C15.0361 26.2664 15.0803 26.26 15.1452 26.2491C15.2753 26.2273 15.4866 26.1878 15.7624 26.1225C16.3163 25.9913 17.1143 25.7597 18.0268 25.3676C19.856 24.5816 22.0616 23.1895 23.7558 20.7365L23.7588 20.7322C26.0159 17.4759 27.1667 14.0069 27.2398 10.5588L30.3642 10.625L33.4884 10.5588C33.5615 14.0069 34.7123 17.4759 36.9694 20.7322L36.9724 20.7365C38.6666 23.1895 40.8722 24.5816 42.7014 25.3676C43.6139 25.7597 44.4119 25.9913 44.9658 26.1225C45.2416 26.1878 45.4529 26.2273 45.583 26.2491C45.6479 26.26 45.6921 26.2664 45.7135 26.2693L45.7281 26.2713L45.7219 26.2706L45.7154 26.2698L45.7112 26.2693L45.7089 26.2691C45.7077 26.2689 45.7065 26.2688 45.3641 29.375C45.0217 32.4812 45.0204 32.481 45.0191 32.4809L45.0164 32.4806L45.0104 32.4799L44.9965 32.4783L44.9612 32.4741C44.9344 32.4708 44.901 32.4664 44.8613 32.461C44.782 32.4501 44.6774 32.4345 44.5498 32.4132C44.295 32.3704 43.9471 32.3041 43.5252 32.2042C42.6841 32.005 41.5339 31.6685 40.234 31.1099C38.1768 30.226 35.6922 28.7617 33.4891 26.3666L33.4891 50L27.2391 50L27.2391 26.3666C25.036 28.7617 22.5514 30.226 20.4942 31.1099C19.1943 31.6685 18.0441 32.005 17.203 32.2042C16.7811 32.3041 16.4332 32.3704 16.1784 32.4132C16.0508 32.4345 15.9462 32.4501 15.8669 32.461C15.8272 32.4664 15.7938 32.4708 15.767 32.4741L15.7317 32.4783L15.7178 32.4799L15.7118 32.4806L15.7091 32.4809Z" fill="white"/>
</svg>
