<svg id="圖層_1" data-name="圖層 1" xmlns="http://www.w3.org/2000/svg" viewBox="0 0 170.21655 97.11923"><defs><style>.cls-1{fill:none;stroke:#fff8e9;stroke-miterlimit:10;stroke-width:8px;}</style></defs><path class="cls-1" d="M.10828,10.93861c14.16561,0,14.16561,12,28.33123,12,14.16584,0,14.16584-12,28.33169-12,14.16649,0,14.16649,12,28.333,12,14.166,0,14.166-12,28.33209-12,14.168,0,14.168,12,28.336,12s14.168-12,28.336-12"/><path class="cls-1" d="M.10828,31.80123c14.16561,0,14.16561,12,28.33123,12,14.16584,0,14.16584-12,28.33169-12,14.16649,0,14.16649,12,28.333,12,14.166,0,14.166-12,28.33209-12,14.168,0,14.168,12,28.336,12s14.168-12,28.336-12"/><path class="cls-1" d="M.10828,52.66386c14.16561,0,14.16561,12,28.33123,12,14.16584,0,14.16584-12,28.33169-12,14.16649,0,14.16649,12,28.333,12,14.166,0,14.166-12,28.33209-12,14.168,0,14.168,12,28.336,12s14.168-12,28.336-12"/><path class="cls-1" d="M.10828,73.52648c14.16561,0,14.16561,12,28.33123,12,14.16584,0,14.16584-12,28.33169-12,14.16649,0,14.16649,12,28.333,12,14.166,0,14.166-12,28.33209-12,14.168,0,14.168,12,28.336,12s14.168-12,28.336-12"/></svg>