<svg width="700" height="500" viewBox="0 0 700 500" fill="none" xmlns="http://www.w3.org/2000/svg">
<g clip-path="url(#clip0_3000_21910)">
<path d="M0 0V500H700V0H0ZM635.154 451.047L477.772 487.881L164.224 482.499L27.5282 454.081L16.982 237.845L40.1026 82.71L190.184 34.1762L425.04 6.00918L632.72 40.6762L651.379 223.978L635.154 451.047Z" fill="#0099FF"/>
<rect width="747.826" height="43.1396" transform="matrix(0 1 -1 0 700 -103.687)" fill="black" fill-opacity="0.25"/>
<path d="M665.122 3.46251C665.122 -1.17338 666.107 -4.58877 668.076 -6.78364C670.046 -8.97851 672.856 -10.0759 676.507 -10.0759C680.179 -10.0759 683.081 -8.97851 685.215 -6.78364C687.348 -4.58877 688.415 -1.17338 688.415 3.46251C688.415 9.94457 686.189 14.283 681.738 16.4779C681.102 14.6317 680.148 12.4676 678.876 9.98559C680.025 9.39072 680.876 8.44713 681.43 7.15482C681.984 5.88303 682.261 4.58046 682.261 3.24713C682.261 1.2779 681.738 -0.188768 680.692 -1.15287C679.666 -2.11697 678.394 -2.59902 676.876 -2.59902C675.235 -2.59902 673.892 -2.0862 672.846 -1.06056C671.82 -0.0144087 671.307 1.57534 671.307 3.70867C671.307 5.41123 671.584 6.76508 672.138 7.77021C672.712 8.77534 673.615 9.5138 674.846 9.98559C673.943 11.6676 672.928 13.8215 671.799 16.4471C669.317 15.4215 667.584 13.7087 666.599 11.3087C665.615 8.90867 665.122 6.29328 665.122 3.46251ZM687.799 38.6428V46.2736H675.553C672.538 46.2326 670.046 45.1967 668.076 43.1659C666.107 41.1556 665.122 37.7608 665.122 32.9813C665.122 28.1402 666.056 24.8274 667.922 23.0428C669.81 21.2582 672.281 20.3864 675.338 20.4274H687.799V28.0582H675.83C674.928 28.0582 674.189 28.1197 673.615 28.2428C673.061 28.3864 672.538 28.8172 672.046 29.5351C671.553 30.2736 671.307 31.4531 671.307 33.0736C671.307 34.8377 671.553 36.13 672.046 36.9505C672.558 37.771 673.122 38.2531 673.738 38.3967C674.353 38.5608 675.143 38.6428 676.107 38.6428H687.799ZM680.322 75.0404C678.538 75.0404 677.03 74.5994 675.799 73.7173C674.569 72.8558 673.676 71.3686 673.122 69.2558C672.794 69.5019 672.538 69.6763 672.353 69.7789L665.43 74.7635V66.3943C667.112 65.4917 669.492 64.066 672.569 62.1173V57.5943H665.43V50.3327C669.41 50.4968 673.133 50.5789 676.599 50.5789C680.066 50.5789 683.789 50.4968 687.769 50.3327V57.5943H687.738V63.9019C687.738 68.0455 687.071 70.9378 685.738 72.5789C684.405 74.2199 682.599 75.0404 680.322 75.0404ZM681.83 57.5943H678.322V61.7481C678.322 63.4917 678.374 64.8045 678.476 65.6866C678.599 66.5891 678.784 67.2148 679.03 67.5635C679.276 67.9122 679.635 68.0866 680.107 68.0866C680.558 68.0866 680.907 67.9225 681.153 67.5943C681.399 67.266 681.574 66.6507 681.676 65.7481C681.779 64.8455 681.83 63.5122 681.83 61.7481V57.5943ZM680.322 103.742C678.538 103.742 677.03 103.301 675.799 102.419C674.569 101.558 673.676 100.071 673.122 97.9577C672.794 98.2039 672.538 98.3782 672.353 98.4808L665.43 103.465V95.0962C667.112 94.1936 669.492 92.768 672.569 90.8192V86.2962H665.43V79.0346C669.41 79.1987 673.133 79.2808 676.599 79.2808C680.066 79.2808 683.789 79.1987 687.769 79.0346V86.2962H687.738V92.6039C687.738 96.7475 687.071 99.6398 685.738 101.281C684.405 102.922 682.599 103.742 680.322 103.742ZM681.83 86.2962H678.322V90.45C678.322 92.1936 678.374 93.5064 678.476 94.3885C678.599 95.291 678.784 95.9167 679.03 96.2654C679.276 96.6141 679.635 96.7885 680.107 96.7885C680.558 96.7885 680.907 96.6244 681.153 96.2962C681.399 95.968 681.574 95.3526 681.676 94.45C681.779 93.5475 681.83 92.2141 681.83 90.45V86.2962ZM671.061 114.998C671.102 122.793 671.215 128.444 671.399 131.952C670.558 131.808 669.687 131.716 668.784 131.675C667.902 131.655 666.784 131.644 665.43 131.644V107.737C669.41 107.901 673.133 107.983 676.599 107.983C680.066 107.983 683.789 107.901 687.769 107.737V131.644H682.199V114.998H679.246C679.225 115.983 679.215 117.439 679.215 119.367C679.215 122.629 679.276 126.003 679.399 129.49H674.107C674.23 126.003 674.292 122.629 674.292 119.367C674.292 117.439 674.281 115.983 674.261 114.998H671.061ZM687.738 161.773C684.271 161.63 680.558 161.558 676.599 161.558C672.62 161.558 668.897 161.63 665.43 161.773V150.758L682.23 143.312L665.43 143.865V135.958C669.41 136.122 673.133 136.204 676.599 136.204C680.046 136.204 683.758 136.122 687.738 135.958V147.281L670.476 154.758L687.738 154.235V161.773ZM681.307 192.202C681.41 188.982 681.471 185.853 681.492 182.818H665.43V175.125H681.492C681.471 172.069 681.41 168.951 681.307 165.771H687.769V192.202H681.307ZM671.061 211.176C671.102 218.971 671.215 224.622 671.399 228.13C670.558 227.986 669.687 227.894 668.784 227.853C667.902 227.832 666.784 227.822 665.43 227.822V203.914C669.41 204.079 673.133 204.161 676.599 204.161C680.066 204.161 683.789 204.079 687.769 203.914V227.822H682.199V211.176H679.246C679.225 212.161 679.215 213.617 679.215 215.545C679.215 218.807 679.276 222.181 679.399 225.668H674.107C674.23 222.181 674.292 218.807 674.292 215.545C674.292 213.617 674.281 212.161 674.261 211.176H671.061ZM687.769 256.757L683.061 254.726C678.897 252.942 675.564 251.536 673.061 250.511C670.558 249.485 668.015 248.542 665.43 247.68V238.48C667.974 237.639 670.487 236.706 672.969 235.68C675.471 234.675 678.671 233.321 682.569 231.619C683.225 231.331 684.958 230.583 687.769 229.372V237.926C685.779 238.542 683.225 239.454 680.107 240.665C677.358 241.731 674.979 242.593 672.969 243.249C674.384 243.68 675.892 244.193 677.492 244.788C679.112 245.403 680.097 245.772 680.446 245.895C683.584 247.085 686.025 247.957 687.769 248.511V256.757ZM671.061 267.198C671.102 274.993 671.215 280.644 671.399 284.151C670.558 284.008 669.687 283.916 668.784 283.875C667.902 283.854 666.784 283.844 665.43 283.844V259.936C669.41 260.1 673.133 260.182 676.599 260.182C680.066 260.182 683.789 260.1 687.769 259.936V283.844H682.199V267.198H679.246C679.225 268.182 679.215 269.639 679.215 271.567C679.215 274.828 679.276 278.203 679.399 281.69H674.107C674.23 278.203 674.292 274.828 674.292 271.567C674.292 269.639 674.281 268.182 674.261 267.198H671.061ZM687.738 313.973C684.271 313.829 680.558 313.757 676.599 313.757C672.62 313.757 668.897 313.829 665.43 313.973V302.957L682.23 295.511L665.43 296.065V288.157C669.41 288.321 673.133 288.403 676.599 288.403C680.046 288.403 683.758 288.321 687.738 288.157V299.48L670.476 306.957L687.738 306.434V313.973ZM681.307 344.402C681.41 341.181 681.471 338.053 681.492 335.017H665.43V327.325H681.492C681.471 324.268 681.41 321.15 681.307 317.971H687.769V344.402H681.307Z" fill="white"/>
<path d="M665.122 398.129C665.122 393.493 666.107 390.077 668.076 387.882C670.046 385.688 672.856 384.59 676.507 384.59C680.179 384.59 683.081 385.688 685.215 387.882C687.348 390.077 688.415 393.493 688.415 398.129C688.415 404.611 686.189 408.949 681.738 411.144C681.102 409.298 680.148 407.134 678.876 404.652C680.025 404.057 680.876 403.113 681.43 401.821C681.984 400.549 682.261 399.247 682.261 397.913C682.261 395.944 681.738 394.477 680.692 393.513C679.666 392.549 678.394 392.067 676.876 392.067C675.235 392.067 673.892 392.58 672.846 393.606C671.82 394.652 671.307 396.241 671.307 398.375C671.307 400.077 671.584 401.431 672.138 402.436C672.712 403.441 673.615 404.18 674.846 404.652C673.943 406.334 672.928 408.488 671.799 411.113C669.317 410.088 667.584 408.375 666.599 405.975C665.615 403.575 665.122 400.959 665.122 398.129ZM687.799 433.309V440.94H675.553C672.538 440.899 670.046 439.863 668.076 437.832C666.107 435.822 665.122 432.427 665.122 427.647C665.122 422.806 666.056 419.494 667.922 417.709C669.81 415.924 672.281 415.052 675.338 415.094H687.799V422.724H675.83C674.928 422.724 674.189 422.786 673.615 422.909C673.061 423.052 672.538 423.483 672.046 424.201C671.553 424.94 671.307 426.119 671.307 427.74C671.307 429.504 671.553 430.796 672.046 431.617C672.558 432.437 673.122 432.919 673.738 433.063C674.353 433.227 675.143 433.309 676.107 433.309H687.799ZM680.322 469.706C678.538 469.706 677.03 469.265 675.799 468.383C674.569 467.522 673.676 466.035 673.122 463.922C672.794 464.168 672.538 464.342 672.353 464.445L665.43 469.43V461.06C667.112 460.158 669.492 458.732 672.569 456.783V452.26H665.43V444.999C669.41 445.163 673.133 445.245 676.599 445.245C680.066 445.245 683.789 445.163 687.769 444.999V452.26H687.738V458.568C687.738 462.712 687.071 465.604 685.738 467.245C684.405 468.886 682.599 469.706 680.322 469.706ZM681.83 452.26H678.322V456.414C678.322 458.158 678.374 459.471 678.476 460.353C678.599 461.255 678.784 461.881 679.03 462.23C679.276 462.578 679.635 462.753 680.107 462.753C680.558 462.753 680.907 462.589 681.153 462.26C681.399 461.932 681.574 461.317 681.676 460.414C681.779 459.512 681.83 458.178 681.83 456.414V452.26ZM680.322 498.408C678.538 498.408 677.03 497.967 675.799 497.085C674.569 496.224 673.676 494.737 673.122 492.624C672.794 492.87 672.538 493.044 672.353 493.147L665.43 498.131V489.762C667.112 488.86 669.492 487.434 672.569 485.485V480.962H665.43V473.701C669.41 473.865 673.133 473.947 676.599 473.947C680.066 473.947 683.789 473.865 687.769 473.701V480.962H687.738V487.27C687.738 491.414 687.071 494.306 685.738 495.947C684.405 497.588 682.599 498.408 680.322 498.408ZM681.83 480.962H678.322V485.116C678.322 486.86 678.374 488.173 678.476 489.055C678.599 489.957 678.784 490.583 679.03 490.931C679.276 491.28 679.635 491.455 680.107 491.455C680.558 491.455 680.907 491.29 681.153 490.962C681.399 490.634 681.574 490.019 681.676 489.116C681.779 488.214 681.83 486.88 681.83 485.116V480.962ZM671.061 509.664C671.102 517.459 671.215 523.11 671.399 526.618C670.558 526.474 669.687 526.382 668.784 526.341C667.902 526.321 666.784 526.31 665.43 526.31V502.403C669.41 502.567 673.133 502.649 676.599 502.649C680.066 502.649 683.789 502.567 687.769 502.403V526.31H682.199V509.664H679.246C679.225 510.649 679.215 512.105 679.215 514.033C679.215 517.295 679.276 520.669 679.399 524.156H674.107C674.23 520.669 674.292 517.295 674.292 514.033C674.292 512.105 674.281 510.649 674.261 509.664H671.061ZM687.738 556.439C684.271 556.296 680.558 556.224 676.599 556.224C672.62 556.224 668.897 556.296 665.43 556.439V545.424L682.23 537.978L665.43 538.531V530.624C669.41 530.788 673.133 530.87 676.599 530.87C680.046 530.87 683.758 530.788 687.738 530.624V541.947L670.476 549.424L687.738 548.901V556.439ZM681.307 586.868C681.41 583.648 681.471 580.52 681.492 577.484H665.43V569.791H681.492C681.471 566.735 681.41 563.617 681.307 560.438H687.769V586.868H681.307ZM671.061 605.842C671.102 613.637 671.215 619.288 671.399 622.796C670.558 622.652 669.687 622.56 668.784 622.519C667.902 622.498 666.784 622.488 665.43 622.488V598.581C669.41 598.745 673.133 598.827 676.599 598.827C680.066 598.827 683.789 598.745 687.769 598.581V622.488H682.199V605.842H679.246C679.225 606.827 679.215 608.283 679.215 610.211C679.215 613.473 679.276 616.847 679.399 620.334H674.107C674.23 616.847 674.292 613.473 674.292 610.211C674.292 608.283 674.281 606.827 674.261 605.842H671.061ZM687.769 651.423L683.061 649.392C678.897 647.608 675.564 646.203 673.061 645.177C670.558 644.151 668.015 643.208 665.43 642.346V633.146C667.974 632.305 670.487 631.372 672.969 630.346C675.471 629.341 678.671 627.987 682.569 626.285C683.225 625.997 684.958 625.249 687.769 624.038V632.592C685.779 633.208 683.225 634.121 680.107 635.331C677.358 636.397 674.979 637.259 672.969 637.915C674.384 638.346 675.892 638.859 677.492 639.454C679.112 640.069 680.097 640.438 680.446 640.562C683.584 641.751 686.025 642.623 687.769 643.177V651.423ZM671.061 661.864C671.102 669.659 671.215 675.31 671.399 678.818C670.558 678.674 669.687 678.582 668.784 678.541C667.902 678.52 666.784 678.51 665.43 678.51V654.602C669.41 654.766 673.133 654.848 676.599 654.848C680.066 654.848 683.789 654.766 687.769 654.602V678.51H682.199V661.864H679.246C679.225 662.848 679.215 664.305 679.215 666.233C679.215 669.494 679.276 672.869 679.399 676.356H674.107C674.23 672.869 674.292 669.494 674.292 666.233C674.292 664.305 674.281 662.848 674.261 661.864H671.061ZM687.738 708.639C684.271 708.495 680.558 708.423 676.599 708.423C672.62 708.423 668.897 708.495 665.43 708.639V697.623L682.23 690.177L665.43 690.731V682.823C669.41 682.987 673.133 683.069 676.599 683.069C680.046 683.069 683.758 682.987 687.738 682.823V694.146L670.476 701.623L687.738 701.1V708.639ZM681.307 739.068C681.41 735.847 681.471 732.719 681.492 729.683H665.43V721.991H681.492C681.471 718.934 681.41 715.817 681.307 712.637H687.769V739.068H681.307Z" fill="white"/>
</g>
<defs>
<clipPath id="clip0_3000_21910">
<rect width="700" height="500" fill="white"/>
</clipPath>
</defs>
</svg>
